<svg id="apple-store-btn-grey" xmlns="http://www.w3.org/2000/svg" width="212.725" height="62.197" viewBox="0 0 212.725 62.197">
  <g id="app-store-icon" transform="translate(0 0)">
    <g id="Grupo_63" data-name="Grupo 63">
      <g id="Grupo_57" data-name="Grupo 57">
        <path id="Caminho_2154" data-name="Caminho 2154" d="M202.317,62.4H10.524C4.73,62.4,0,58.258,0,53.174V9.423C0,4.339,4.73.2,10.524.2H202.2c5.794,0,10.524,4.139,10.524,9.223V53.174C212.841,58.258,208.111,62.4,202.317,62.4ZM10.524,2.328C6.149,2.328,2.6,5.521,2.6,9.3V53.056c0,3.9,3.666,6.976,8.041,6.976H202.317c4.493,0,8.041-3.193,8.041-6.976V9.3c0-3.9-3.666-6.976-8.041-6.976Z" transform="translate(0 -0.2)" fill="#464646"/>
      </g>
      <g id="Grupo_59" data-name="Grupo 59" transform="translate(19.002 9.105)">
        <path id="Caminho_2155" data-name="Caminho 2155" d="M51.579,36.811a26.2,26.2,0,0,1-2.72,5.085c-1.774,2.72-4.139,6.031-7.213,6.031-2.72,0-3.429-1.774-7.095-1.774s-4.375,1.774-7.095,1.774c-3.074,0-5.439-3.074-7.095-5.676C15.4,34.8,14.923,26.051,18,21.321,20.126,18.01,23.555,16,26.748,16s5.321,1.774,8.041,1.774c2.6,0,4.139-1.774,8.041-1.774,2.838,0,5.794,1.655,8.041,4.139A9.07,9.07,0,0,0,51.579,36.811Z" transform="translate(-16.07 -6.422)" fill="#464646"/>
        <g id="Grupo_58" data-name="Grupo 58" transform="translate(16.881)">
          <path id="Caminho_2156" data-name="Caminho 2156" d="M36.913,14.64a9.378,9.378,0,0,0,2.01-6.74,10.094,10.094,0,0,0-6.385,3.429c-1.3,1.774-2.483,4.139-2.128,6.5A8.478,8.478,0,0,0,36.913,14.64Z" transform="translate(-30.346 -7.9)" fill="#464646"/>
        </g>
      </g>
      <g id="Grupo_62" data-name="Grupo 62" transform="translate(66.69 9.578)">
        <g id="Grupo_60" data-name="Grupo 60" transform="translate(1.064)">
          <path id="Caminho_2157" data-name="Caminho 2157" d="M57.3,8.918A19.183,19.183,0,0,1,60.02,8.8a5.858,5.858,0,0,1,4.02,1.3,4.888,4.888,0,0,1,1.419,3.547,5.27,5.27,0,0,1-1.419,3.784,5.9,5.9,0,0,1-4.375,1.419,15.076,15.076,0,0,1-2.365-.118C57.3,18.614,57.3,8.918,57.3,8.918Zm1.419,8.75c.236,0,.828.118,1.3.118,2.72,0,4.257-1.537,4.257-4.257,0-2.365-1.3-3.784-4.02-3.784a5.78,5.78,0,0,0-1.537.118V17.55h0Z" transform="translate(-57.3 -8.209)" fill="#464646"/>
          <path id="Caminho_2158" data-name="Caminho 2158" d="M67.055,9.528a.747.747,0,0,1-.828.828.888.888,0,0,1-.828-.828.8.8,0,0,1,.828-.828C66.819,8.818,67.055,9.055,67.055,9.528Zm-1.419,9.1V11.538h1.3v7.095Z" transform="translate(-55.822 -8.227)" fill="#464646"/>
          <path id="Caminho_2159" data-name="Caminho 2159" d="M68.436,16.912a3.972,3.972,0,0,0,1.655.591c.946,0,1.419-.473,1.419-1.064s-.473-.946-1.3-1.3c-1.3-.473-1.774-1.064-1.774-2.01A2.256,2.256,0,0,1,70.8,11c.709,0,1.419.118,1.655.473l-.236.828a3.293,3.293,0,0,0-1.419-.473.967.967,0,0,0-1.064.946c0,.591.473.828,1.419,1.3,1.3.473,1.774,1.064,1.774,2.128,0,1.3-.946,2.128-2.72,2.128a3.383,3.383,0,0,1-2.01-.473Z" transform="translate(-55.311 -7.807)" fill="#464646"/>
          <path id="Caminho_2160" data-name="Caminho 2160" d="M73.536,13.483V11.118H74.6v1.3h0A3.039,3.039,0,0,1,77.084,11c1.655,0,2.956,1.419,2.956,3.666,0,2.483-1.537,3.784-3.193,3.784A2.927,2.927,0,0,1,74.6,17.385h0v3.9H73.3V13.6h.236Zm1.182,1.892v.591a2.054,2.054,0,0,0,2.01,1.537c1.419,0,2.128-1.064,2.128-2.838,0-1.419-.709-2.72-2.128-2.72a2.244,2.244,0,0,0-2.01,1.537c0,.118-.118.473-.118.591v1.3Z" transform="translate(-54.381 -7.807)" fill="#464646"/>
          <path id="Caminho_2161" data-name="Caminho 2161" d="M86.958,14.566a3.411,3.411,0,0,1-3.547,3.784c-2.01,0-3.311-1.419-3.311-3.666A3.481,3.481,0,0,1,83.647,10.9C85.658,10.9,86.958,12.437,86.958,14.566Zm-5.558.118c0,1.537.828,2.72,2.128,2.72s2.128-1.064,2.128-2.838c0-1.3-.591-2.72-2.128-2.72C81.992,11.964,81.4,13.383,81.4,14.684Z" transform="translate(-53.14 -7.826)" fill="#464646"/>
          <path id="Caminho_2162" data-name="Caminho 2162" d="M87.318,13.065v-2.01h.946l.118,1.064h0A2.627,2.627,0,0,1,90.747,10.7c.946,0,2.483.591,2.483,3.074v4.375h-1.3v-4.02c0-1.064-.473-2.128-1.655-2.128a1.668,1.668,0,0,0-1.655,1.3c0,.118-.118.473-.118.591v4.257H87.2V13.065Z" transform="translate(-51.845 -7.862)" fill="#464646"/>
          <path id="Caminho_2163" data-name="Caminho 2163" d="M96.82,8.6l-1.774,2.128H94.1L95.4,8.6Zm-2.6,10.051V11.556h1.3v7.095Z" transform="translate(-50.586 -8.245)" fill="#464646"/>
          <path id="Caminho_2164" data-name="Caminho 2164" d="M97.719,11.2l1.419,3.9c.236.709.473,1.3.591,1.774h0c.118-.591.473-1.064.591-1.774l1.419-3.9h1.419l-2.838,7.095h-1.3L96.3,11.2Z" transform="translate(-50.184 -7.771)" fill="#464646"/>
          <path id="Caminho_2165" data-name="Caminho 2165" d="M103.7,15.02a2.267,2.267,0,0,0,2.365,2.483,3.162,3.162,0,0,0,2.01-.473l.237.946a8.157,8.157,0,0,1-2.365.473,3.326,3.326,0,0,1-3.547-3.666c0-2.128,1.3-3.784,3.311-3.784a3.028,3.028,0,0,1,2.956,3.311V14.9H103.7Zm3.784-1.064c0-.828-.236-2.128-1.774-2.128-1.3,0-1.774,1.3-2.01,2.128Z" transform="translate(-49.071 -7.807)" fill="#464646"/>
          <path id="Caminho_2166" data-name="Caminho 2166" d="M109.1,8.3h1.3V18.706h-1.3Z" transform="translate(-47.849 -8.3)" fill="#464646"/>
          <path id="Caminho_2167" data-name="Caminho 2167" d="M114.7,13.065v-2.01h1.064l.118,1.064h0a2.627,2.627,0,0,1,2.365-1.419c.946,0,2.483.591,2.483,3.074v4.375h-1.3v-4.02c0-1.064-.473-2.128-1.655-2.128a1.668,1.668,0,0,0-1.655,1.3c0,.118-.118.473-.118.591v4.257h-1.3V13.3h0Z" transform="translate(-46.827 -7.862)" fill="#464646"/>
          <path id="Caminho_2168" data-name="Caminho 2168" d="M125.575,18.213l-.118-.828h0a2.514,2.514,0,0,1-2.128,1.064,1.985,1.985,0,0,1-2.128-2.128c0-1.655,1.537-2.72,4.257-2.72v-.118a1.462,1.462,0,0,0-1.655-1.655,2.172,2.172,0,0,0-1.774.591l-.236-.828A3.72,3.72,0,0,1,124.156,11c2.128,0,2.72,1.537,2.72,2.956v2.72a6.765,6.765,0,0,0,.118,1.655h-1.3v-.118Zm-.236-3.666c-1.419,0-2.956.236-2.956,1.537a1.241,1.241,0,0,0,1.3,1.3,1.651,1.651,0,0,0,1.655-1.064c0-.118.118-.236.118-.473v-1.3Z" transform="translate(-45.641 -7.807)" fill="#464646"/>
        </g>
        <g id="Grupo_61" data-name="Grupo 61" transform="translate(0 15.49)">
          <path id="Caminho_2169" data-name="Caminho 2169" d="M63.849,21.9,56.4,43.894h3.311l2.247-6.74H69.17l2.247,6.74h3.429L67.515,22.018H63.849Zm1.774,3.666c.236.946.591,2.01.828,3.074l2.01,5.794H62.785l2.01-5.912A17.676,17.676,0,0,0,65.623,25.566Z" transform="translate(-56.4 -21.309)" fill="#464646"/>
          <path id="Caminho_2170" data-name="Caminho 2170" d="M81.6,26.7a5.854,5.854,0,0,0-5.2,2.6l-.118-2.247H73.2v.236c.118,1.3.118,2.838.118,4.966V49.167h3.311V41.244a6.153,6.153,0,0,0,4.493,2.01,6.872,6.872,0,0,0,4.966-2.128,9.106,9.106,0,0,0,2.247-6.385,9.451,9.451,0,0,0-1.892-5.794A6.484,6.484,0,0,0,81.6,26.7Zm-.828,2.838c2.956,0,4.257,2.72,4.257,5.439,0,3.429-1.774,5.676-4.375,5.676a3.922,3.922,0,0,1-3.9-3.074,2.936,2.936,0,0,1-.118-1.064v-2.72a2.012,2.012,0,0,1,.118-.828v-.236A4.263,4.263,0,0,1,80.768,29.538Z" transform="translate(-53.335 -20.433)" fill="#464646"/>
          <path id="Caminho_2171" data-name="Caminho 2171" d="M96.014,26.7a5.854,5.854,0,0,0-5.2,2.6l-.236-2.247H87.5v.236c.118,1.3.118,2.838.118,4.966V49.167h3.311V41.244a6.153,6.153,0,0,0,4.493,2.01,7.08,7.08,0,0,0,4.966-2.128,9.106,9.106,0,0,0,2.247-6.385,9.452,9.452,0,0,0-1.892-5.794A6.06,6.06,0,0,0,96.014,26.7Zm-.828,2.838c2.956,0,4.257,2.72,4.257,5.439,0,3.429-1.774,5.676-4.375,5.676a3.922,3.922,0,0,1-3.9-3.074,2.936,2.936,0,0,1-.118-1.064v-2.72a2.012,2.012,0,0,1,.118-.828v-.236A4.159,4.159,0,0,1,95.186,29.538Z" transform="translate(-50.726 -20.433)" fill="#464646"/>
          <path id="Caminho_2172" data-name="Caminho 2172" d="M114,31.214c-3.074-1.182-4.02-2.128-4.02-3.9,0-1.419,1.182-2.956,3.784-2.956a9.827,9.827,0,0,1,3.9.946l.236.118.946-2.838-.118-.118a10.981,10.981,0,0,0-4.848-1.064c-4.257,0-7.213,2.6-7.213,6.031,0,2.838,1.892,4.966,5.794,6.267,2.838,1.064,3.9,2.128,3.9,4.02,0,2.128-1.655,3.311-4.139,3.311a10.946,10.946,0,0,1-4.848-1.3l-.236-.118-.946,2.838.118.118a11.489,11.489,0,0,0,5.676,1.419c5.676,0,7.8-3.429,7.8-6.385C119.443,34.762,117.906,32.87,114,31.214Z" transform="translate(-47.314 -21.4)" fill="#464646"/>
          <path id="Caminho_2173" data-name="Caminho 2173" d="M123.358,23.918l-3.193,1.064V27.82H117.8v2.72h2.365V38.7c0,2.01.355,3.311,1.182,4.139a4.28,4.28,0,0,0,3.193,1.182,10.414,10.414,0,0,0,2.6-.355h.118l-.118-2.72-.236.118a4.873,4.873,0,0,1-1.419.118c-1.3,0-1.892-.828-1.892-2.72V30.422h4.02V27.7h-4.02V23.8h-.236Z" transform="translate(-45.197 -20.962)" fill="#464646"/>
          <path id="Caminho_2174" data-name="Caminho 2174" d="M134.022,26.7c-4.73,0-7.922,3.429-7.922,8.4,0,4.848,3.074,8.159,7.686,8.159h0c3.784,0,7.922-2.72,7.922-8.4a8.441,8.441,0,0,0-2.128-5.912A7.667,7.667,0,0,0,134.022,26.7Zm-.118,2.72c2.956,0,4.257,2.956,4.257,5.676,0,3.311-1.892,5.794-4.375,5.794h0c-2.6,0-4.257-2.365-4.257-5.676C129.529,32.139,130.83,29.42,133.9,29.42Z" transform="translate(-43.683 -20.433)" fill="#464646"/>
          <path id="Caminho_2175" data-name="Caminho 2175" d="M149.159,26.918h-.118a2.012,2.012,0,0,0-.828-.118,4.651,4.651,0,0,0-4.139,2.72l-.118-2.247H141v.236c.118,1.3.118,2.838.118,4.848V43.236h3.311v-8.4a4.85,4.85,0,0,1,.118-1.3,3.651,3.651,0,0,1,3.429-3.311h1.3V27.155h-.118Z" transform="translate(-40.965 -20.415)" fill="#464646"/>
          <path id="Caminho_2176" data-name="Caminho 2176" d="M155.249,26.7c-4.375,0-7.449,3.429-7.449,8.514,0,4.848,3.074,8.041,7.8,8.041a11.436,11.436,0,0,0,5.2-1.064l.118-.118-.709-2.365-.236.118a10.46,10.46,0,0,1-4.139.828,4.667,4.667,0,0,1-4.966-4.848h10.76v-.236a4.433,4.433,0,0,0,.118-1.3C161.753,30.72,160.1,26.7,155.249,26.7Zm-.118,2.483a2.612,2.612,0,0,1,2.365.946,5.319,5.319,0,0,1,1.182,3.074h-7.449A4.024,4.024,0,0,1,155.131,29.183Z" transform="translate(-39.724 -20.433)" fill="#464646"/>
        </g>
      </g>
    </g>
  </g>
</svg>
