<svg id="apple-store-btn" xmlns="http://www.w3.org/2000/svg" width="221.853" height="64.866" viewBox="0 0 221.853 64.866">
  <g id="app-store-icon" transform="translate(0 0)">
    <g id="Grupo_63" data-name="Grupo 63">
      <g id="Grupo_57" data-name="Grupo 57">
        <path id="Caminho_2154" data-name="Caminho 2154" d="M211,65.066H10.975C4.933,65.066,0,60.75,0,55.447V9.819C0,4.516,4.933.2,10.975.2h199.9c6.043,0,10.975,4.316,10.975,9.619V55.447C221.974,60.75,217.042,65.066,211,65.066ZM10.975,2.42c-4.563,0-8.262,3.33-8.262,7.276V55.324c0,4.07,3.823,7.276,8.386,7.276H211c4.686,0,8.386-3.33,8.386-7.276V9.7c0-4.07-3.823-7.276-8.386-7.276Z" transform="translate(0 -0.2)" fill="#fff"/>
      </g>
      <g id="Grupo_59" data-name="Grupo 59" transform="translate(19.817 9.496)">
        <path id="Caminho_2155" data-name="Caminho 2155" d="M53.1,37.7a27.321,27.321,0,0,1-2.836,5.3c-1.85,2.836-4.316,6.289-7.522,6.289-2.836,0-3.576-1.85-7.4-1.85s-4.563,1.85-7.4,1.85c-3.206,0-5.673-3.206-7.4-5.919-5.179-7.769-5.673-16.895-2.466-21.827C20.3,18.1,23.876,16,27.206,16s5.549,1.85,8.386,1.85c2.713,0,4.316-1.85,8.386-1.85,2.96,0,6.043,1.726,8.386,4.316A9.459,9.459,0,0,0,53.1,37.7Z" transform="translate(-16.07 -6.011)" fill="#fff"/>
        <g id="Grupo_58" data-name="Grupo 58" transform="translate(17.605)">
          <path id="Caminho_2156" data-name="Caminho 2156" d="M37.2,14.929a9.78,9.78,0,0,0,2.1-7.029,10.527,10.527,0,0,0-6.659,3.576c-1.357,1.85-2.59,4.316-2.22,6.783A8.842,8.842,0,0,0,37.2,14.929Z" transform="translate(-30.346 -7.9)" fill="#fff"/>
        </g>
      </g>
      <g id="Grupo_62" data-name="Grupo 62" transform="translate(69.552 9.989)">
        <g id="Grupo_60" data-name="Grupo 60" transform="translate(1.11)">
          <path id="Caminho_2157" data-name="Caminho 2157" d="M57.3,8.923A20.007,20.007,0,0,1,60.136,8.8a6.109,6.109,0,0,1,4.193,1.357,5.1,5.1,0,0,1,1.48,3.7,5.5,5.5,0,0,1-1.48,3.946,6.152,6.152,0,0,1-4.563,1.48,15.723,15.723,0,0,1-2.466-.123C57.3,19.035,57.3,8.923,57.3,8.923Zm1.48,9.126c.247,0,.863.123,1.357.123,2.836,0,4.439-1.6,4.439-4.439,0-2.466-1.357-3.946-4.193-3.946a6.028,6.028,0,0,0-1.6.123v8.016h0Z" transform="translate(-57.3 -8.183)" fill="#fff"/>
          <path id="Caminho_2158" data-name="Caminho 2158" d="M67.126,9.563a.779.779,0,0,1-.863.863.927.927,0,0,1-.863-.863.837.837,0,0,1,.863-.863C66.88,8.823,67.126,9.07,67.126,9.563Zm-1.48,9.5v-7.4H67v7.4Z" transform="translate(-55.411 -8.207)" fill="#fff"/>
          <path id="Caminho_2159" data-name="Caminho 2159" d="M68.447,17.166a4.143,4.143,0,0,0,1.726.617c.987,0,1.48-.493,1.48-1.11s-.493-.987-1.357-1.357c-1.357-.493-1.85-1.11-1.85-2.1A2.353,2.353,0,0,1,70.913,11c.74,0,1.48.123,1.726.493l-.247.863a3.434,3.434,0,0,0-1.48-.493,1.008,1.008,0,0,0-1.11.987c0,.617.493.863,1.48,1.357,1.357.493,1.85,1.11,1.85,2.22,0,1.357-.987,2.22-2.836,2.22a3.528,3.528,0,0,1-2.1-.493Z" transform="translate(-54.758 -7.67)" fill="#fff"/>
          <path id="Caminho_2160" data-name="Caminho 2160" d="M73.547,13.59V11.123h1.11V12.48h0A3.169,3.169,0,0,1,77.246,11c1.726,0,3.083,1.48,3.083,3.823,0,2.59-1.6,3.946-3.33,3.946a3.053,3.053,0,0,1-2.343-1.11h0v4.07H73.3V13.713h.247Zm1.233,1.973v.617a2.142,2.142,0,0,0,2.1,1.6c1.48,0,2.22-1.11,2.22-2.96,0-1.48-.74-2.836-2.22-2.836a2.34,2.34,0,0,0-2.1,1.6c0,.123-.123.493-.123.617v1.357Z" transform="translate(-53.569 -7.67)" fill="#fff"/>
          <path id="Caminho_2161" data-name="Caminho 2161" d="M87.253,14.723c0,2.836-1.85,3.946-3.7,3.946-2.1,0-3.453-1.48-3.453-3.823A3.63,3.63,0,0,1,83.8,10.9C85.9,10.9,87.253,12.5,87.253,14.723Zm-5.8.123c0,1.6.863,2.836,2.22,2.836s2.22-1.11,2.22-2.96c0-1.357-.617-2.836-2.22-2.836C82.073,12.01,81.457,13.49,81.457,14.846Z" transform="translate(-51.983 -7.694)" fill="#fff"/>
          <path id="Caminho_2162" data-name="Caminho 2162" d="M87.323,13.166v-2.1h.987l.123,1.11h0A2.74,2.74,0,0,1,90.9,10.7c.987,0,2.59.617,2.59,3.206v4.563H92.133V14.276c0-1.11-.493-2.22-1.726-2.22a1.739,1.739,0,0,0-1.726,1.357c0,.123-.123.493-.123.617v4.439H87.2v-5.3Z" transform="translate(-50.328 -7.74)" fill="#fff"/>
          <path id="Caminho_2163" data-name="Caminho 2163" d="M96.936,8.6l-1.85,2.22H94.1L95.456,8.6ZM94.223,19.082v-7.4H95.58v7.4Z" transform="translate(-48.719 -8.23)" fill="#fff"/>
          <path id="Caminho_2164" data-name="Caminho 2164" d="M97.78,11.2l1.48,4.07c.247.74.493,1.357.617,1.85h0c.123-.617.493-1.11.617-1.85l1.48-4.07h1.48l-2.96,7.4H99.136L96.3,11.2Z" transform="translate(-48.206 -7.624)" fill="#fff"/>
          <path id="Caminho_2165" data-name="Caminho 2165" d="M103.757,15.193a2.364,2.364,0,0,0,2.466,2.59,3.3,3.3,0,0,0,2.1-.493l.247.987a8.507,8.507,0,0,1-2.466.493,3.468,3.468,0,0,1-3.7-3.823c0-2.22,1.357-3.946,3.453-3.946,2.466,0,3.083,2.22,3.083,3.453v.617h-5.179Zm3.946-1.11c0-.863-.247-2.22-1.85-2.22-1.356,0-1.85,1.357-2.1,2.22Z" transform="translate(-46.783 -7.67)" fill="#fff"/>
          <path id="Caminho_2166" data-name="Caminho 2166" d="M109.1,8.3h1.357V19.152H109.1Z" transform="translate(-45.221 -8.3)" fill="#fff"/>
          <path id="Caminho_2167" data-name="Caminho 2167" d="M114.7,13.166v-2.1h1.11l.123,1.11h0A2.74,2.74,0,0,1,118.4,10.7c.987,0,2.59.617,2.59,3.206v4.563h-1.357V14.276c0-1.11-.493-2.22-1.726-2.22a1.739,1.739,0,0,0-1.726,1.357c0,.123-.123.493-.123.617v4.439H114.7V13.413h0Z" transform="translate(-43.915 -7.74)" fill="#fff"/>
          <path id="Caminho_2168" data-name="Caminho 2168" d="M125.763,18.522l-.123-.863h0a2.622,2.622,0,0,1-2.22,1.11,2.07,2.07,0,0,1-2.22-2.22c0-1.726,1.6-2.836,4.439-2.836V13.59a1.525,1.525,0,0,0-1.726-1.726,2.265,2.265,0,0,0-1.85.617l-.247-.863A3.88,3.88,0,0,1,124.283,11c2.22,0,2.836,1.6,2.836,3.083v2.836a7.055,7.055,0,0,0,.123,1.726h-1.357v-.123Zm-.247-3.823c-1.48,0-3.083.247-3.083,1.6a1.294,1.294,0,0,0,1.357,1.357,1.722,1.722,0,0,0,1.726-1.11c0-.123.123-.247.123-.493V14.7Z" transform="translate(-42.399 -7.67)" fill="#fff"/>
        </g>
        <g id="Grupo_61" data-name="Grupo 61" transform="translate(0 16.155)">
          <path id="Caminho_2169" data-name="Caminho 2169" d="M64.169,21.9,56.4,44.837h3.453L62.2,37.808h7.522l2.343,7.029h3.576L67.992,22.023H64.169Zm1.85,3.823c.247.987.617,2.1.863,3.206l2.1,6.043H63.059l2.1-6.166A18.435,18.435,0,0,0,66.019,25.723Z" transform="translate(-56.4 -21.283)" fill="#fff"/>
          <path id="Caminho_2170" data-name="Caminho 2170" d="M81.956,26.7a6.1,6.1,0,0,0-5.426,2.713l-.123-2.343H73.2v.247c.123,1.357.123,2.96.123,5.179V50.131h3.453V41.868a6.417,6.417,0,0,0,4.686,2.1,7.167,7.167,0,0,0,5.179-2.22,9.5,9.5,0,0,0,2.343-6.659,9.857,9.857,0,0,0-1.973-6.043A6.762,6.762,0,0,0,81.956,26.7Zm-.863,2.96c3.083,0,4.439,2.836,4.439,5.673,0,3.576-1.85,5.919-4.563,5.919a4.091,4.091,0,0,1-4.07-3.206,3.062,3.062,0,0,1-.123-1.11V34.1a2.1,2.1,0,0,1,.123-.863v-.247A4.446,4.446,0,0,1,81.092,29.66Z" transform="translate(-52.482 -20.164)" fill="#fff"/>
          <path id="Caminho_2171" data-name="Caminho 2171" d="M96.379,26.7a6.1,6.1,0,0,0-5.426,2.713l-.247-2.343H87.5v.247c.123,1.357.123,2.96.123,5.179V50.131h3.453V41.868a6.417,6.417,0,0,0,4.686,2.1,7.384,7.384,0,0,0,5.179-2.22,9.5,9.5,0,0,0,2.343-6.659,9.857,9.857,0,0,0-1.973-6.043A6.32,6.32,0,0,0,96.379,26.7Zm-.863,2.96c3.083,0,4.439,2.836,4.439,5.673,0,3.576-1.85,5.919-4.563,5.919a4.091,4.091,0,0,1-4.07-3.206,3.062,3.062,0,0,1-.123-1.11V34.1a2.1,2.1,0,0,1,.123-.863v-.247A4.338,4.338,0,0,1,95.516,29.66Z" transform="translate(-49.148 -20.164)" fill="#fff"/>
          <path id="Caminho_2172" data-name="Caminho 2172" d="M114.339,31.635c-3.206-1.233-4.193-2.22-4.193-4.07,0-1.48,1.233-3.083,3.946-3.083a10.248,10.248,0,0,1,4.07.987l.247.123.987-2.96-.123-.123a11.452,11.452,0,0,0-5.056-1.11c-4.439,0-7.522,2.713-7.522,6.289,0,2.96,1.973,5.179,6.043,6.536,2.96,1.11,4.07,2.22,4.07,4.193,0,2.22-1.726,3.453-4.316,3.453a11.416,11.416,0,0,1-5.056-1.357l-.247-.123-.987,2.96.123.123a11.982,11.982,0,0,0,5.919,1.48c5.919,0,8.139-3.576,8.139-6.659C120.012,35.335,118.409,33.362,114.339,31.635Z" transform="translate(-44.787 -21.4)" fill="#fff"/>
          <path id="Caminho_2173" data-name="Caminho 2173" d="M123.6,23.923l-3.33,1.11v2.96H117.8v2.836h2.466v8.509c0,2.1.37,3.453,1.233,4.316a4.464,4.464,0,0,0,3.33,1.233,10.86,10.86,0,0,0,2.713-.37h.123l-.123-2.836-.247.123a5.081,5.081,0,0,1-1.48.123c-1.357,0-1.973-.863-1.973-2.836V30.706h4.193V27.87h-4.193V23.8H123.6Z" transform="translate(-42.082 -20.84)" fill="#fff"/>
          <path id="Caminho_2174" data-name="Caminho 2174" d="M134.362,26.7c-4.933,0-8.262,3.576-8.262,8.756,0,5.056,3.206,8.509,8.016,8.509h0c3.946,0,8.262-2.836,8.262-8.756a8.8,8.8,0,0,0-2.22-6.166A8,8,0,0,0,134.362,26.7Zm-.123,2.836c3.083,0,4.439,3.083,4.439,5.919,0,3.453-1.973,6.043-4.563,6.043h0c-2.713,0-4.44-2.466-4.44-5.919C129.676,32.373,131.033,29.536,134.239,29.536Z" transform="translate(-40.147 -20.164)" fill="#fff"/>
          <path id="Caminho_2175" data-name="Caminho 2175" d="M149.509,26.923h-.123a2.1,2.1,0,0,0-.863-.123,4.851,4.851,0,0,0-4.316,2.836l-.123-2.343H141v.247c.123,1.357.123,2.96.123,5.056V43.941h3.453V35.186a5.058,5.058,0,0,1,.123-1.357,3.808,3.808,0,0,1,3.576-3.453h1.357V27.17h-.123Z" transform="translate(-36.672 -20.141)" fill="#fff"/>
          <path id="Caminho_2176" data-name="Caminho 2176" d="M155.569,26.7c-4.563,0-7.769,3.576-7.769,8.879,0,5.056,3.206,8.386,8.139,8.386a11.927,11.927,0,0,0,5.426-1.11l.123-.123-.74-2.466-.247.123a10.909,10.909,0,0,1-4.316.863,4.867,4.867,0,0,1-5.179-5.056h11.222v-.247a4.623,4.623,0,0,0,.123-1.357C162.352,30.893,160.625,26.7,155.569,26.7Zm-.123,2.59a2.724,2.724,0,0,1,2.466.987,5.547,5.547,0,0,1,1.233,3.206h-7.769A4.2,4.2,0,0,1,155.446,29.29Z" transform="translate(-35.086 -20.164)" fill="#fff"/>
        </g>
      </g>
    </g>
  </g>
</svg>
