<svg xmlns="http://www.w3.org/2000/svg" xmlns:xlink="http://www.w3.org/1999/xlink" width="1920" height="907.658" viewBox="0 0 1920 907.658"><defs><linearGradient id="a" x1="0.121" y1="0.95" x2="0.879" y2="0.149" gradientUnits="objectBoundingBox"><stop offset="0" stop-color="#e4441b"/><stop offset="1" stop-color="#f39201"/></linearGradient><clipPath id="c"><path d="M0,0V869.677S1137.65,1084.967,1920,490.4V0Z" transform="translate(-420 -2134)" fill="url(#a)"/></clipPath></defs><path d="M0,0V869.677S1137.65,1084.967,1920,490.4V0Z" fill="url(#a)"/><g transform="translate(420 2134)" clip-path="url(#c)"><g transform="translate(-355.939 1380.688)" opacity="0.23"><g transform="translate(-86.581 -3553.128)"><path d="M0,29.185,60.4,2.162l58.314,27.023L180.149,2.162l49.983,27.023L293.653,2.162,346.76,29.185,399.868,2.162l47.9,27.023L505.041,0" transform="translate(0 448.517)" fill="none" stroke="#363636" stroke-width="0.3" stroke-dasharray="0 0"/><path d="M0,29.185,58.314,0l60.4,29.185L180.149,2.162l49.983,27.023L293.653,2.162,346.76,29.185,399.868,2.162l47.9,27.023,55.19-27.023" transform="translate(505.041 436.64)" fill="none" stroke="#363636" stroke-width="0.3" stroke-dasharray="0 0"/><path d="M0,29.185,60.4,2.162l58.314,27.023L180.149,2.162l49.983,27.023L293.653,2.162,346.76,29.185,399.868,2.162l47.9,27.023L505.041,0" transform="translate(0 535.846)" fill="none" stroke="#363636" stroke-width="0.3" stroke-dasharray="0 0"/><path d="M0,29.185,58.314,0l60.4,29.185L180.149,2.162l49.983,27.023L293.653,2.162,346.76,29.185,399.868,2.162l47.9,27.023,55.19-27.023" transform="translate(505.041 523.968)" fill="none" stroke="#363636" stroke-width="0.3" stroke-dasharray="0 0"/><path d="M0,29.185,60.4,2.162l58.314,27.023L180.149,2.162l49.983,27.023L293.653,2.162,346.76,29.185,399.868,2.162l47.9,27.023L505.041,0" transform="translate(0 431.052)" fill="none" stroke="#363636" stroke-width="0.3" stroke-dasharray="0 0"/><path d="M0,29.185,58.314,0l60.4,29.185L180.149,2.162l49.983,27.023L293.653,2.162,346.76,29.185,399.868,2.162l47.9,27.023,55.19-27.023" transform="translate(505.041 419.174)" fill="none" stroke="#363636" stroke-width="0.3" stroke-dasharray="0 0"/><path d="M0,29.185,60.4,2.162l58.314,27.023L180.149,2.162l49.983,27.023L293.653,2.162,346.76,29.185,399.868,2.162l47.9,27.023L505.041,0" transform="translate(0 518.38)" fill="none" stroke="#363636" stroke-width="0.3" stroke-dasharray="0 0"/><path d="M0,29.185,58.314,0l60.4,29.185L180.149,2.162l49.983,27.023L293.653,2.162,346.76,29.185,399.868,2.162l47.9,27.023,55.19-27.023" transform="translate(505.041 506.502)" fill="none" stroke="#363636" stroke-width="0.3" stroke-dasharray="0 0"/><path d="M0,29.185,60.4,2.162l58.314,27.023L180.149,2.162l49.983,27.023L293.653,2.162,346.76,29.185,399.868,2.162l47.9,27.023L505.041,0" transform="translate(0 413.586)" fill="none" stroke="#363636" stroke-width="0.3" stroke-dasharray="0 0"/><path d="M0,29.185,58.314,0l60.4,29.185L180.149,2.162l49.983,27.023L293.653,2.162,346.76,29.185,399.868,2.162l47.9,27.023,55.19-27.023" transform="translate(505.041 401.709)" fill="none" stroke="#363636" stroke-width="0.3" stroke-dasharray="0 0"/><path d="M0,29.185,60.4,2.162l58.314,27.023L180.149,2.162l49.983,27.023L293.653,2.162,346.76,29.185,399.868,2.162l47.9,27.023L505.041,0" transform="translate(0 500.914)" fill="none" stroke="#363636" stroke-width="0.3" stroke-dasharray="0 0"/><path d="M0,29.185,58.314,0l60.4,29.185L180.149,2.162l49.983,27.023L293.653,2.162,346.76,29.185,399.868,2.162l47.9,27.023,55.19-27.023" transform="translate(505.041 489.037)" fill="none" stroke="#363636" stroke-width="0.3" stroke-dasharray="0 0"/><path d="M0,29.185,60.4,2.162l58.314,27.023L180.149,2.162l49.983,27.023L293.653,2.162,346.76,29.185,399.868,2.162l47.9,27.023L505.041,0" transform="translate(0 396.121)" fill="none" stroke="#363636" stroke-width="0.3" stroke-dasharray="0 0"/><path d="M0,29.185,58.314,0l60.4,29.185L180.149,2.162l49.983,27.023L293.653,2.162,346.76,29.185,399.868,2.162l47.9,27.023,55.19-27.023" transform="translate(505.041 384.243)" fill="none" stroke="#363636" stroke-width="0.3" stroke-dasharray="0 0"/><path d="M0,29.185,60.4,2.162l58.314,27.023L180.149,2.162l49.983,27.023L293.653,2.162,346.76,29.185,399.868,2.162l47.9,27.023L505.041,0" transform="translate(0 483.449)" fill="none" stroke="#363636" stroke-width="0.3" stroke-dasharray="0 0"/><path d="M0,29.185,58.314,0l60.4,29.185L180.149,2.162l49.983,27.023L293.653,2.162,346.76,29.185,399.868,2.162l47.9,27.023,55.19-27.023" transform="translate(505.041 471.571)" fill="none" stroke="#363636" stroke-width="0.3" stroke-dasharray="0 0"/><path d="M0,29.185,60.4,2.162l58.314,27.023L180.149,2.162l49.983,27.023L293.653,2.162,346.76,29.185,399.868,2.162l47.9,27.023L505.041,0" transform="translate(0 378.655)" fill="none" stroke="#363636" stroke-width="0.3" stroke-dasharray="0 0"/><path d="M0,29.185,58.314,0l60.4,29.185L180.149,2.162l49.983,27.023L293.653,2.162,346.76,29.185,399.868,2.162l47.9,27.023,55.19-27.023" transform="translate(505.041 366.777)" fill="none" stroke="#363636" stroke-width="0.3" stroke-dasharray="0 0"/><path d="M0,29.185,60.4,2.162l58.314,27.023L180.149,2.162l49.983,27.023L293.653,2.162,346.76,29.185,399.868,2.162l47.9,27.023L505.041,0" transform="translate(0 465.983)" fill="none" stroke="#363636" stroke-width="0.3" stroke-dasharray="0 0"/><path d="M0,29.185,58.314,0l60.4,29.185L180.149,2.162l49.983,27.023L293.653,2.162,346.76,29.185,399.868,2.162l47.9,27.023,55.19-27.023" transform="translate(505.041 454.106)" fill="none" stroke="#363636" stroke-width="0.3" stroke-dasharray="0 0"/><path d="M0,29.185,60.4,2.162l58.314,27.023L180.149,2.162l49.983,27.023L293.653,2.162,346.76,29.185,399.868,2.162l47.9,27.023L505.041,0" transform="translate(0 361.19)" fill="none" stroke="#363636" stroke-width="0.3" stroke-dasharray="0 0"/><path d="M0,29.185,58.314,0l60.4,29.185L180.149,2.162l49.983,27.023L293.653,2.162,346.76,29.185,399.868,2.162l47.9,27.023,55.19-27.023" transform="translate(505.041 349.312)" fill="none" stroke="#363636" stroke-width="0.3" stroke-dasharray="0 0"/><path d="M0,29.185,60.4,2.162l58.314,27.023L180.149,2.162l49.983,27.023L293.653,2.162,346.76,29.185,399.868,2.162l47.9,27.023L505.041,0" transform="translate(0 343.724)" fill="none" stroke="#363636" stroke-width="0.3" stroke-dasharray="0 0"/><path d="M0,29.185,58.314,0l60.4,29.185L180.149,2.162l49.983,27.023L293.653,2.162,346.76,29.185,399.868,2.162l47.9,27.023,55.19-27.023" transform="translate(505.041 331.846)" fill="none" stroke="#363636" stroke-width="0.3" stroke-dasharray="0 0"/><path d="M0,29.185,60.4,2.162l58.314,27.023L180.149,2.162l49.983,27.023L293.653,2.162,346.76,29.185,399.868,2.162l47.9,27.023L505.041,0" transform="translate(0 326.258)" fill="none" stroke="#363636" stroke-width="0.3" stroke-dasharray="0 0"/><path d="M0,29.185,58.314,0l60.4,29.185L180.149,2.162l49.983,27.023L293.653,2.162,346.76,29.185,399.868,2.162l47.9,27.023,55.19-27.023" transform="translate(505.041 314.38)" fill="none" stroke="#363636" stroke-width="0.3" stroke-dasharray="0 0"/><path d="M0,29.185,60.4,2.162l58.314,27.023L180.149,2.162l49.983,27.023L293.653,2.162,346.76,29.185,399.868,2.162l47.9,27.023L505.041,0" transform="translate(0 308.793)" fill="none" stroke="#363636" stroke-width="0.3" stroke-dasharray="0 0"/><path d="M0,29.185,58.314,0l60.4,29.185L180.149,2.162l49.983,27.023L293.653,2.162,346.76,29.185,399.868,2.162l47.9,27.023,55.19-27.023" transform="translate(505.041 296.915)" fill="none" stroke="#363636" stroke-width="0.3" stroke-dasharray="0 0"/><path d="M0,29.185,60.4,2.162l58.314,27.023L180.149,2.162l49.983,27.023L293.653,2.162,346.76,29.185,399.868,2.162l47.9,27.023L505.041,0" transform="translate(0 291.327)" fill="none" stroke="#363636" stroke-width="0.3" stroke-dasharray="0 0"/><path d="M0,29.185,58.314,0l60.4,29.185L180.149,2.162l49.983,27.023L293.653,2.162,346.76,29.185,399.868,2.162l47.9,27.023,55.19-27.023" transform="translate(505.041 279.45)" fill="none" stroke="#363636" stroke-width="0.3" stroke-dasharray="0 0"/><path d="M0,29.185,60.4,2.162l58.314,27.023L180.149,2.162l49.983,27.023L293.653,2.162,346.76,29.185,399.868,2.162l47.9,27.023L505.041,0" transform="translate(0 273.861)" fill="none" stroke="#363636" stroke-width="0.3" stroke-dasharray="0 0"/><path d="M0,29.185,58.314,0l60.4,29.185L180.149,2.162l49.983,27.023L293.653,2.162,346.76,29.185,399.868,2.162l47.9,27.023,55.19-27.023" transform="translate(505.041 261.984)" fill="none" stroke="#363636" stroke-width="0.3" stroke-dasharray="0 0"/><path d="M0,29.185,60.4,2.162l58.314,27.023L180.149,2.162l49.983,27.023L293.653,2.162,346.76,29.185,399.868,2.162l47.9,27.023L505.041,0" transform="translate(0 256.396)" fill="none" stroke="#363636" stroke-width="0.3" stroke-dasharray="0 0"/><path d="M0,29.185,58.314,0l60.4,29.185L180.149,2.162l49.983,27.023L293.653,2.162,346.76,29.185,399.868,2.162l47.9,27.023,55.19-27.023" transform="translate(505.041 244.519)" fill="none" stroke="#363636" stroke-width="0.3" stroke-dasharray="0 0"/><path d="M0,29.185,60.4,2.162l58.314,27.023L180.149,2.162l49.983,27.023L293.653,2.162,346.76,29.185,399.868,2.162l47.9,27.023L505.041,0" transform="translate(0 238.931)" fill="none" stroke="#363636" stroke-width="0.3" stroke-dasharray="0 0"/><path d="M0,29.185,58.314,0l60.4,29.185L180.149,2.162l49.983,27.023L293.653,2.162,346.76,29.185,399.868,2.162l47.9,27.023,55.19-27.023" transform="translate(505.041 227.053)" fill="none" stroke="#363636" stroke-width="0.3" stroke-dasharray="0 0"/><path d="M0,29.185,60.4,2.162l58.314,27.023L180.149,2.162l49.983,27.023L293.653,2.162,346.76,29.185,399.868,2.162l47.9,27.023L505.041,0" transform="translate(0 221.465)" fill="none" stroke="#363636" stroke-width="0.3" stroke-dasharray="0 0"/><path d="M0,29.185,58.314,0l60.4,29.185L180.149,2.162l49.983,27.023L293.653,2.162,346.76,29.185,399.868,2.162l47.9,27.023,55.19-27.023" transform="translate(505.041 209.587)" fill="none" stroke="#363636" stroke-width="0.3" stroke-dasharray="0 0"/><path d="M0,29.185,60.4,2.162l58.314,27.023L180.149,2.162l49.983,27.023L293.653,2.162,346.76,29.185,399.868,2.162l47.9,27.023L505.041,0" transform="translate(0 204)" fill="none" stroke="#363636" stroke-width="0.3" stroke-dasharray="0 0"/><path d="M0,29.185,58.314,0l60.4,29.185L180.149,2.162l49.983,27.023L293.653,2.162,346.76,29.185,399.868,2.162l47.9,27.023,55.19-27.023" transform="translate(505.041 192.122)" fill="none" stroke="#363636" stroke-width="0.3" stroke-dasharray="0 0"/><path d="M0,29.185,60.4,2.162l58.314,27.023L180.149,2.162l49.983,27.023L293.653,2.162,346.76,29.185,399.868,2.162l47.9,27.023L505.041,0" transform="translate(0 186.534)" fill="none" stroke="#363636" stroke-width="0.3" stroke-dasharray="0 0"/><path d="M0,29.185,58.314,0l60.4,29.185L180.149,2.162l49.983,27.023L293.653,2.162,346.76,29.185,399.868,2.162l47.9,27.023,55.19-27.023" transform="translate(505.041 174.656)" fill="none" stroke="#363636" stroke-width="0.3" stroke-dasharray="0 0"/><path d="M0,29.185,60.4,2.162l58.314,27.023L180.149,2.162l49.983,27.023L293.653,2.162,346.76,29.185,399.868,2.162l47.9,27.023L505.041,0" transform="translate(0 169.068)" fill="none" stroke="#363636" stroke-width="0.3" stroke-dasharray="0 0"/><path d="M0,29.185,58.314,0l60.4,29.185L180.149,2.162l49.983,27.023L293.653,2.162,346.76,29.185,399.868,2.162l47.9,27.023,55.19-27.023" transform="translate(505.041 157.19)" fill="none" stroke="#363636" stroke-width="0.3" stroke-dasharray="0 0"/><path d="M0,29.185,60.4,2.162l58.314,27.023L180.149,2.162l49.983,27.023L293.653,2.162,346.76,29.185,399.868,2.162l47.9,27.023L505.041,0" transform="translate(0 151.603)" fill="none" stroke="#363636" stroke-width="0.3" stroke-dasharray="0 0"/><path d="M0,29.185,58.314,0l60.4,29.185L180.149,2.162l49.983,27.023L293.653,2.162,346.76,29.185,399.868,2.162l47.9,27.023,55.19-27.023" transform="translate(505.041 139.725)" fill="none" stroke="#363636" stroke-width="0.3" stroke-dasharray="0 0"/><path d="M0,29.185,60.4,2.162l58.314,27.023L180.149,2.162l49.983,27.023L293.653,2.162,346.76,29.185,399.868,2.162l47.9,27.023L505.041,0" transform="translate(0 134.137)" fill="none" stroke="#363636" stroke-width="0.3" stroke-dasharray="0 0"/><path d="M0,29.185,58.314,0l60.4,29.185L180.149,2.162l49.983,27.023L293.653,2.162,346.76,29.185,399.868,2.162l47.9,27.023,55.19-27.023" transform="translate(505.041 122.259)" fill="none" stroke="#363636" stroke-width="0.3" stroke-dasharray="0 0"/><path d="M0,29.185,60.4,2.162l58.314,27.023L180.149,2.162l49.983,27.023L293.653,2.162,346.76,29.185,399.868,2.162l47.9,27.023L505.041,0" transform="translate(0 116.671)" fill="none" stroke="#363636" stroke-width="0.3" stroke-dasharray="0 0"/><path d="M0,29.185,58.314,0l60.4,29.185L180.149,2.162l49.983,27.023L293.653,2.162,346.76,29.185,399.868,2.162l47.9,27.023,55.19-27.023" transform="translate(505.041 104.794)" fill="none" stroke="#363636" stroke-width="0.3" stroke-dasharray="0 0"/><path d="M0,29.185,60.4,2.162l58.314,27.023L180.149,2.162l49.983,27.023L293.653,2.162,346.76,29.185,399.868,2.162l47.9,27.023L505.041,0" transform="translate(0 99.206)" fill="none" stroke="#363636" stroke-width="0.3" stroke-dasharray="0 0"/><path d="M0,29.185,58.314,0l60.4,29.185L180.149,2.162l49.983,27.023L293.653,2.162,346.76,29.185,399.868,2.162l47.9,27.023,55.19-27.023" transform="translate(505.041 87.328)" fill="none" stroke="#363636" stroke-width="0.3" stroke-dasharray="0 0"/><path d="M0,29.185,60.4,2.162l58.314,27.023L180.149,2.162l49.983,27.023L293.653,2.162,346.76,29.185,399.868,2.162l47.9,27.023L505.041,0" transform="translate(0 81.74)" fill="none" stroke="#363636" stroke-width="0.3" stroke-dasharray="0 0"/><path d="M0,29.185,58.314,0l60.4,29.185L180.149,2.162l49.983,27.023L293.653,2.162,346.76,29.185,399.868,2.162l47.9,27.023,55.19-27.023" transform="translate(505.041 69.863)" fill="none" stroke="#363636" stroke-width="0.3" stroke-dasharray="0 0"/><path d="M0,29.185,60.4,2.162l58.314,27.023L180.149,2.162l49.983,27.023L293.653,2.162,346.76,29.185,399.868,2.162l47.9,27.023L505.041,0" transform="translate(0 64.274)" fill="none" stroke="#363636" stroke-width="0.3" stroke-dasharray="0 0"/><path d="M0,29.185,58.314,0l60.4,29.185L180.149,2.162l49.983,27.023L293.653,2.162,346.76,29.185,399.868,2.162l47.9,27.023,55.19-27.023" transform="translate(505.041 52.397)" fill="none" stroke="#363636" stroke-width="0.3" stroke-dasharray="0 0"/><path d="M0,29.185,60.4,2.162l58.314,27.023L180.149,2.162l49.983,27.023L293.653,2.162,346.76,29.185,399.868,2.162l47.9,27.023L505.041,0" transform="translate(0 46.809)" fill="none" stroke="#363636" stroke-width="0.3" stroke-dasharray="0 0"/><path d="M0,29.185,58.314,0l60.4,29.185L180.149,2.162l49.983,27.023L293.653,2.162,346.76,29.185,399.868,2.162l47.9,27.023,55.19-27.023" transform="translate(505.041 34.931)" fill="none" stroke="#363636" stroke-width="0.3" stroke-dasharray="0 0"/><path d="M0,29.185,60.4,2.162l58.314,27.023L180.149,2.162l49.983,27.023L293.653,2.162,346.76,29.185,399.868,2.162l47.9,27.023L505.041,0" transform="translate(0 29.343)" fill="none" stroke="#363636" stroke-width="0.3" stroke-dasharray="0 0"/><path d="M0,29.185,58.314,0l60.4,29.185L180.149,2.162l49.983,27.023L293.653,2.162,346.76,29.185,399.868,2.162l47.9,27.023,55.19-27.023" transform="translate(505.041 17.466)" fill="none" stroke="#363636" stroke-width="0.3" stroke-dasharray="0 0"/><path d="M0,29.185,60.4,2.162l58.314,27.023L180.149,2.162l49.983,27.023L293.653,2.162,346.76,29.185,399.868,2.162l47.9,27.023L505.041,0" transform="translate(0.001 11.878)" fill="none" stroke="#363636" stroke-width="0.3" stroke-dasharray="0 0"/><path d="M0,29.185,58.314,0l60.4,29.185L180.149,2.162l49.983,27.023L293.653,2.162,346.76,29.185,399.868,2.162l47.9,27.023,55.19-27.023" transform="translate(505.042 0)" fill="none" stroke="#363636" stroke-width="0.3" stroke-dasharray="0 0"/></g><g transform="translate(-86.581 -3009.996)"><path d="M0,29.185,60.4,2.162l58.314,27.023L180.149,2.162l49.983,27.023L293.653,2.162,346.76,29.185,399.868,2.162l47.9,27.023L505.041,0" transform="translate(0 448.517)" fill="none" stroke="#363636" stroke-width="0.3" stroke-dasharray="0 0"/><path d="M0,29.185,58.314,0l60.4,29.185L180.149,2.162l49.983,27.023L293.653,2.162,346.76,29.185,399.868,2.162l47.9,27.023,55.19-27.023" transform="translate(505.041 436.64)" fill="none" stroke="#363636" stroke-width="0.3" stroke-dasharray="0 0"/><path d="M0,29.185,60.4,2.162l58.314,27.023L180.149,2.162l49.983,27.023L293.653,2.162,346.76,29.185,399.868,2.162l47.9,27.023L505.041,0" transform="translate(0 535.846)" fill="none" stroke="#363636" stroke-width="0.3" stroke-dasharray="0 0"/><path d="M0,29.185,58.314,0l60.4,29.185L180.149,2.162l49.983,27.023L293.653,2.162,346.76,29.185,399.868,2.162l47.9,27.023,55.19-27.023" transform="translate(505.041 523.968)" fill="none" stroke="#363636" stroke-width="0.3" stroke-dasharray="0 0"/><path d="M0,29.185,60.4,2.162l58.314,27.023L180.149,2.162l49.983,27.023L293.653,2.162,346.76,29.185,399.868,2.162l47.9,27.023L505.041,0" transform="translate(0 431.052)" fill="none" stroke="#363636" stroke-width="0.3" stroke-dasharray="0 0"/><path d="M0,29.185,58.314,0l60.4,29.185L180.149,2.162l49.983,27.023L293.653,2.162,346.76,29.185,399.868,2.162l47.9,27.023,55.19-27.023" transform="translate(505.041 419.174)" fill="none" stroke="#363636" stroke-width="0.3" stroke-dasharray="0 0"/><path d="M0,29.185,60.4,2.162l58.314,27.023L180.149,2.162l49.983,27.023L293.653,2.162,346.76,29.185,399.868,2.162l47.9,27.023L505.041,0" transform="translate(0 518.38)" fill="none" stroke="#363636" stroke-width="0.3" stroke-dasharray="0 0"/><path d="M0,29.185,58.314,0l60.4,29.185L180.149,2.162l49.983,27.023L293.653,2.162,346.76,29.185,399.868,2.162l47.9,27.023,55.19-27.023" transform="translate(505.041 506.502)" fill="none" stroke="#363636" stroke-width="0.3" stroke-dasharray="0 0"/><path d="M0,29.185,60.4,2.162l58.314,27.023L180.149,2.162l49.983,27.023L293.653,2.162,346.76,29.185,399.868,2.162l47.9,27.023L505.041,0" transform="translate(0 413.586)" fill="none" stroke="#363636" stroke-width="0.3" stroke-dasharray="0 0"/><path d="M0,29.185,58.314,0l60.4,29.185L180.149,2.162l49.983,27.023L293.653,2.162,346.76,29.185,399.868,2.162l47.9,27.023,55.19-27.023" transform="translate(505.041 401.709)" fill="none" stroke="#363636" stroke-width="0.3" stroke-dasharray="0 0"/><path d="M0,29.185,60.4,2.162l58.314,27.023L180.149,2.162l49.983,27.023L293.653,2.162,346.76,29.185,399.868,2.162l47.9,27.023L505.041,0" transform="translate(0 500.914)" fill="none" stroke="#363636" stroke-width="0.3" stroke-dasharray="0 0"/><path d="M0,29.185,58.314,0l60.4,29.185L180.149,2.162l49.983,27.023L293.653,2.162,346.76,29.185,399.868,2.162l47.9,27.023,55.19-27.023" transform="translate(505.041 489.037)" fill="none" stroke="#363636" stroke-width="0.3" stroke-dasharray="0 0"/><path d="M0,29.185,60.4,2.162l58.314,27.023L180.149,2.162l49.983,27.023L293.653,2.162,346.76,29.185,399.868,2.162l47.9,27.023L505.041,0" transform="translate(0 396.121)" fill="none" stroke="#363636" stroke-width="0.3" stroke-dasharray="0 0"/><path d="M0,29.185,58.314,0l60.4,29.185L180.149,2.162l49.983,27.023L293.653,2.162,346.76,29.185,399.868,2.162l47.9,27.023,55.19-27.023" transform="translate(505.041 384.243)" fill="none" stroke="#363636" stroke-width="0.3" stroke-dasharray="0 0"/><path d="M0,29.185,60.4,2.162l58.314,27.023L180.149,2.162l49.983,27.023L293.653,2.162,346.76,29.185,399.868,2.162l47.9,27.023L505.041,0" transform="translate(0 483.449)" fill="none" stroke="#363636" stroke-width="0.3" stroke-dasharray="0 0"/><path d="M0,29.185,58.314,0l60.4,29.185L180.149,2.162l49.983,27.023L293.653,2.162,346.76,29.185,399.868,2.162l47.9,27.023,55.19-27.023" transform="translate(505.041 471.571)" fill="none" stroke="#363636" stroke-width="0.3" stroke-dasharray="0 0"/><path d="M0,29.185,60.4,2.162l58.314,27.023L180.149,2.162l49.983,27.023L293.653,2.162,346.76,29.185,399.868,2.162l47.9,27.023L505.041,0" transform="translate(0 378.655)" fill="none" stroke="#363636" stroke-width="0.3" stroke-dasharray="0 0"/><path d="M0,29.185,58.314,0l60.4,29.185L180.149,2.162l49.983,27.023L293.653,2.162,346.76,29.185,399.868,2.162l47.9,27.023,55.19-27.023" transform="translate(505.041 366.777)" fill="none" stroke="#363636" stroke-width="0.3" stroke-dasharray="0 0"/><path d="M0,29.185,60.4,2.162l58.314,27.023L180.149,2.162l49.983,27.023L293.653,2.162,346.76,29.185,399.868,2.162l47.9,27.023L505.041,0" transform="translate(0 465.983)" fill="none" stroke="#363636" stroke-width="0.3" stroke-dasharray="0 0"/><path d="M0,29.185,58.314,0l60.4,29.185L180.149,2.162l49.983,27.023L293.653,2.162,346.76,29.185,399.868,2.162l47.9,27.023,55.19-27.023" transform="translate(505.041 454.106)" fill="none" stroke="#363636" stroke-width="0.3" stroke-dasharray="0 0"/><path d="M0,29.185,60.4,2.162l58.314,27.023L180.149,2.162l49.983,27.023L293.653,2.162,346.76,29.185,399.868,2.162l47.9,27.023L505.041,0" transform="translate(0 361.19)" fill="none" stroke="#363636" stroke-width="0.3" stroke-dasharray="0 0"/><path d="M0,29.185,58.314,0l60.4,29.185L180.149,2.162l49.983,27.023L293.653,2.162,346.76,29.185,399.868,2.162l47.9,27.023,55.19-27.023" transform="translate(505.041 349.312)" fill="none" stroke="#363636" stroke-width="0.3" stroke-dasharray="0 0"/><path d="M0,29.185,60.4,2.162l58.314,27.023L180.149,2.162l49.983,27.023L293.653,2.162,346.76,29.185,399.868,2.162l47.9,27.023L505.041,0" transform="translate(0 343.724)" fill="none" stroke="#363636" stroke-width="0.3" stroke-dasharray="0 0"/><path d="M0,29.185,58.314,0l60.4,29.185L180.149,2.162l49.983,27.023L293.653,2.162,346.76,29.185,399.868,2.162l47.9,27.023,55.19-27.023" transform="translate(505.041 331.846)" fill="none" stroke="#363636" stroke-width="0.3" stroke-dasharray="0 0"/><path d="M0,29.185,60.4,2.162l58.314,27.023L180.149,2.162l49.983,27.023L293.653,2.162,346.76,29.185,399.868,2.162l47.9,27.023L505.041,0" transform="translate(0 326.258)" fill="none" stroke="#363636" stroke-width="0.3" stroke-dasharray="0 0"/><path d="M0,29.185,58.314,0l60.4,29.185L180.149,2.162l49.983,27.023L293.653,2.162,346.76,29.185,399.868,2.162l47.9,27.023,55.19-27.023" transform="translate(505.041 314.38)" fill="none" stroke="#363636" stroke-width="0.3" stroke-dasharray="0 0"/><path d="M0,29.185,60.4,2.162l58.314,27.023L180.149,2.162l49.983,27.023L293.653,2.162,346.76,29.185,399.868,2.162l47.9,27.023L505.041,0" transform="translate(0 308.793)" fill="none" stroke="#363636" stroke-width="0.3" stroke-dasharray="0 0"/><path d="M0,29.185,58.314,0l60.4,29.185L180.149,2.162l49.983,27.023L293.653,2.162,346.76,29.185,399.868,2.162l47.9,27.023,55.19-27.023" transform="translate(505.041 296.915)" fill="none" stroke="#363636" stroke-width="0.3" stroke-dasharray="0 0"/><path d="M0,29.185,60.4,2.162l58.314,27.023L180.149,2.162l49.983,27.023L293.653,2.162,346.76,29.185,399.868,2.162l47.9,27.023L505.041,0" transform="translate(0 291.327)" fill="none" stroke="#363636" stroke-width="0.3" stroke-dasharray="0 0"/><path d="M0,29.185,58.314,0l60.4,29.185L180.149,2.162l49.983,27.023L293.653,2.162,346.76,29.185,399.868,2.162l47.9,27.023,55.19-27.023" transform="translate(505.041 279.45)" fill="none" stroke="#363636" stroke-width="0.3" stroke-dasharray="0 0"/><path d="M0,29.185,60.4,2.162l58.314,27.023L180.149,2.162l49.983,27.023L293.653,2.162,346.76,29.185,399.868,2.162l47.9,27.023L505.041,0" transform="translate(0 273.861)" fill="none" stroke="#363636" stroke-width="0.3" stroke-dasharray="0 0"/><path d="M0,29.185,58.314,0l60.4,29.185L180.149,2.162l49.983,27.023L293.653,2.162,346.76,29.185,399.868,2.162l47.9,27.023,55.19-27.023" transform="translate(505.041 261.984)" fill="none" stroke="#363636" stroke-width="0.3" stroke-dasharray="0 0"/><path d="M0,29.185,60.4,2.162l58.314,27.023L180.149,2.162l49.983,27.023L293.653,2.162,346.76,29.185,399.868,2.162l47.9,27.023L505.041,0" transform="translate(0 256.396)" fill="none" stroke="#363636" stroke-width="0.3" stroke-dasharray="0 0"/><path d="M0,29.185,58.314,0l60.4,29.185L180.149,2.162l49.983,27.023L293.653,2.162,346.76,29.185,399.868,2.162l47.9,27.023,55.19-27.023" transform="translate(505.041 244.519)" fill="none" stroke="#363636" stroke-width="0.3" stroke-dasharray="0 0"/><path d="M0,29.185,60.4,2.162l58.314,27.023L180.149,2.162l49.983,27.023L293.653,2.162,346.76,29.185,399.868,2.162l47.9,27.023L505.041,0" transform="translate(0 238.931)" fill="none" stroke="#363636" stroke-width="0.3" stroke-dasharray="0 0"/><path d="M0,29.185,58.314,0l60.4,29.185L180.149,2.162l49.983,27.023L293.653,2.162,346.76,29.185,399.868,2.162l47.9,27.023,55.19-27.023" transform="translate(505.041 227.053)" fill="none" stroke="#363636" stroke-width="0.3" stroke-dasharray="0 0"/><path d="M0,29.185,60.4,2.162l58.314,27.023L180.149,2.162l49.983,27.023L293.653,2.162,346.76,29.185,399.868,2.162l47.9,27.023L505.041,0" transform="translate(0 221.465)" fill="none" stroke="#363636" stroke-width="0.3" stroke-dasharray="0 0"/><path d="M0,29.185,58.314,0l60.4,29.185L180.149,2.162l49.983,27.023L293.653,2.162,346.76,29.185,399.868,2.162l47.9,27.023,55.19-27.023" transform="translate(505.041 209.587)" fill="none" stroke="#363636" stroke-width="0.3" stroke-dasharray="0 0"/><path d="M0,29.185,60.4,2.162l58.314,27.023L180.149,2.162l49.983,27.023L293.653,2.162,346.76,29.185,399.868,2.162l47.9,27.023L505.041,0" transform="translate(0 204)" fill="none" stroke="#363636" stroke-width="0.3" stroke-dasharray="0 0"/><path d="M0,29.185,58.314,0l60.4,29.185L180.149,2.162l49.983,27.023L293.653,2.162,346.76,29.185,399.868,2.162l47.9,27.023,55.19-27.023" transform="translate(505.041 192.122)" fill="none" stroke="#363636" stroke-width="0.3" stroke-dasharray="0 0"/><path d="M0,29.185,60.4,2.162l58.314,27.023L180.149,2.162l49.983,27.023L293.653,2.162,346.76,29.185,399.868,2.162l47.9,27.023L505.041,0" transform="translate(0 186.534)" fill="none" stroke="#363636" stroke-width="0.3" stroke-dasharray="0 0"/><path d="M0,29.185,58.314,0l60.4,29.185L180.149,2.162l49.983,27.023L293.653,2.162,346.76,29.185,399.868,2.162l47.9,27.023,55.19-27.023" transform="translate(505.041 174.656)" fill="none" stroke="#363636" stroke-width="0.3" stroke-dasharray="0 0"/><path d="M0,29.185,60.4,2.162l58.314,27.023L180.149,2.162l49.983,27.023L293.653,2.162,346.76,29.185,399.868,2.162l47.9,27.023L505.041,0" transform="translate(0 169.068)" fill="none" stroke="#363636" stroke-width="0.3" stroke-dasharray="0 0"/><path d="M0,29.185,58.314,0l60.4,29.185L180.149,2.162l49.983,27.023L293.653,2.162,346.76,29.185,399.868,2.162l47.9,27.023,55.19-27.023" transform="translate(505.041 157.19)" fill="none" stroke="#363636" stroke-width="0.3" stroke-dasharray="0 0"/><path d="M0,29.185,60.4,2.162l58.314,27.023L180.149,2.162l49.983,27.023L293.653,2.162,346.76,29.185,399.868,2.162l47.9,27.023L505.041,0" transform="translate(0 151.603)" fill="none" stroke="#363636" stroke-width="0.3" stroke-dasharray="0 0"/><path d="M0,29.185,58.314,0l60.4,29.185L180.149,2.162l49.983,27.023L293.653,2.162,346.76,29.185,399.868,2.162l47.9,27.023,55.19-27.023" transform="translate(505.041 139.725)" fill="none" stroke="#363636" stroke-width="0.3" stroke-dasharray="0 0"/><path d="M0,29.185,60.4,2.162l58.314,27.023L180.149,2.162l49.983,27.023L293.653,2.162,346.76,29.185,399.868,2.162l47.9,27.023L505.041,0" transform="translate(0 134.137)" fill="none" stroke="#363636" stroke-width="0.3" stroke-dasharray="0 0"/><path d="M0,29.185,58.314,0l60.4,29.185L180.149,2.162l49.983,27.023L293.653,2.162,346.76,29.185,399.868,2.162l47.9,27.023,55.19-27.023" transform="translate(505.041 122.259)" fill="none" stroke="#363636" stroke-width="0.3" stroke-dasharray="0 0"/><path d="M0,29.185,60.4,2.162l58.314,27.023L180.149,2.162l49.983,27.023L293.653,2.162,346.76,29.185,399.868,2.162l47.9,27.023L505.041,0" transform="translate(0 116.671)" fill="none" stroke="#363636" stroke-width="0.3" stroke-dasharray="0 0"/><path d="M0,29.185,58.314,0l60.4,29.185L180.149,2.162l49.983,27.023L293.653,2.162,346.76,29.185,399.868,2.162l47.9,27.023,55.19-27.023" transform="translate(505.041 104.794)" fill="none" stroke="#363636" stroke-width="0.3" stroke-dasharray="0 0"/><path d="M0,29.185,60.4,2.162l58.314,27.023L180.149,2.162l49.983,27.023L293.653,2.162,346.76,29.185,399.868,2.162l47.9,27.023L505.041,0" transform="translate(0 99.206)" fill="none" stroke="#363636" stroke-width="0.3" stroke-dasharray="0 0"/><path d="M0,29.185,58.314,0l60.4,29.185L180.149,2.162l49.983,27.023L293.653,2.162,346.76,29.185,399.868,2.162l47.9,27.023,55.19-27.023" transform="translate(505.041 87.328)" fill="none" stroke="#363636" stroke-width="0.3" stroke-dasharray="0 0"/><path d="M0,29.185,60.4,2.162l58.314,27.023L180.149,2.162l49.983,27.023L293.653,2.162,346.76,29.185,399.868,2.162l47.9,27.023L505.041,0" transform="translate(0 81.74)" fill="none" stroke="#363636" stroke-width="0.3" stroke-dasharray="0 0"/><path d="M0,29.185,58.314,0l60.4,29.185L180.149,2.162l49.983,27.023L293.653,2.162,346.76,29.185,399.868,2.162l47.9,27.023,55.19-27.023" transform="translate(505.041 69.863)" fill="none" stroke="#363636" stroke-width="0.3" stroke-dasharray="0 0"/><path d="M0,29.185,60.4,2.162l58.314,27.023L180.149,2.162l49.983,27.023L293.653,2.162,346.76,29.185,399.868,2.162l47.9,27.023L505.041,0" transform="translate(0 64.274)" fill="none" stroke="#363636" stroke-width="0.3" stroke-dasharray="0 0"/><path d="M0,29.185,58.314,0l60.4,29.185L180.149,2.162l49.983,27.023L293.653,2.162,346.76,29.185,399.868,2.162l47.9,27.023,55.19-27.023" transform="translate(505.041 52.397)" fill="none" stroke="#363636" stroke-width="0.3" stroke-dasharray="0 0"/><path d="M0,29.185,60.4,2.162l58.314,27.023L180.149,2.162l49.983,27.023L293.653,2.162,346.76,29.185,399.868,2.162l47.9,27.023L505.041,0" transform="translate(0 46.809)" fill="none" stroke="#363636" stroke-width="0.3" stroke-dasharray="0 0"/><path d="M0,29.185,58.314,0l60.4,29.185L180.149,2.162l49.983,27.023L293.653,2.162,346.76,29.185,399.868,2.162l47.9,27.023,55.19-27.023" transform="translate(505.041 34.931)" fill="none" stroke="#363636" stroke-width="0.3" stroke-dasharray="0 0"/><path d="M0,29.185,60.4,2.162l58.314,27.023L180.149,2.162l49.983,27.023L293.653,2.162,346.76,29.185,399.868,2.162l47.9,27.023L505.041,0" transform="translate(0 29.343)" fill="none" stroke="#363636" stroke-width="0.3" stroke-dasharray="0 0"/><path d="M0,29.185,58.314,0l60.4,29.185L180.149,2.162l49.983,27.023L293.653,2.162,346.76,29.185,399.868,2.162l47.9,27.023,55.19-27.023" transform="translate(505.041 17.466)" fill="none" stroke="#363636" stroke-width="0.3" stroke-dasharray="0 0"/><path d="M0,29.185,60.4,2.162l58.314,27.023L180.149,2.162l49.983,27.023L293.653,2.162,346.76,29.185,399.868,2.162l47.9,27.023L505.041,0" transform="translate(0.001 11.878)" fill="none" stroke="#363636" stroke-width="0.3" stroke-dasharray="0 0"/><path d="M0,29.185,58.314,0l60.4,29.185L180.149,2.162l49.983,27.023L293.653,2.162,346.76,29.185,399.868,2.162l47.9,27.023,55.19-27.023" transform="translate(505.042 0)" fill="none" stroke="#363636" stroke-width="0.3" stroke-dasharray="0 0"/></g><g transform="translate(921.42 -3592)"><path d="M0,29.185,60.4,2.162l58.314,27.023L180.149,2.162l49.983,27.023L293.653,2.162,346.76,29.185,399.868,2.162l47.9,27.023L505.041,0" transform="translate(0 448.517)" fill="none" stroke="#363636" stroke-width="0.3" stroke-dasharray="0 0"/><path d="M0,29.185,58.314,0l60.4,29.185L180.149,2.162l49.983,27.023L293.653,2.162,346.76,29.185,399.868,2.162l47.9,27.023,55.19-27.023" transform="translate(505.041 436.64)" fill="none" stroke="#363636" stroke-width="0.3" stroke-dasharray="0 0"/><path d="M0,29.185,60.4,2.162l58.314,27.023L180.149,2.162l49.983,27.023L293.653,2.162,346.76,29.185,399.868,2.162l47.9,27.023L505.041,0" transform="translate(0 535.846)" fill="none" stroke="#363636" stroke-width="0.3" stroke-dasharray="0 0"/><path d="M0,29.185,58.314,0l60.4,29.185L180.149,2.162l49.983,27.023L293.653,2.162,346.76,29.185,399.868,2.162l47.9,27.023,55.19-27.023" transform="translate(505.041 523.968)" fill="none" stroke="#363636" stroke-width="0.3" stroke-dasharray="0 0"/><path d="M0,29.185,60.4,2.162l58.314,27.023L180.149,2.162l49.983,27.023L293.653,2.162,346.76,29.185,399.868,2.162l47.9,27.023L505.041,0" transform="translate(0 431.052)" fill="none" stroke="#363636" stroke-width="0.3" stroke-dasharray="0 0"/><path d="M0,29.185,58.314,0l60.4,29.185L180.149,2.162l49.983,27.023L293.653,2.162,346.76,29.185,399.868,2.162l47.9,27.023,55.19-27.023" transform="translate(505.041 419.174)" fill="none" stroke="#363636" stroke-width="0.3" stroke-dasharray="0 0"/><path d="M0,29.185,60.4,2.162l58.314,27.023L180.149,2.162l49.983,27.023L293.653,2.162,346.76,29.185,399.868,2.162l47.9,27.023L505.041,0" transform="translate(0 518.38)" fill="none" stroke="#363636" stroke-width="0.3" stroke-dasharray="0 0"/><path d="M0,29.185,58.314,0l60.4,29.185L180.149,2.162l49.983,27.023L293.653,2.162,346.76,29.185,399.868,2.162l47.9,27.023,55.19-27.023" transform="translate(505.041 506.502)" fill="none" stroke="#363636" stroke-width="0.3" stroke-dasharray="0 0"/><path d="M0,29.185,60.4,2.162l58.314,27.023L180.149,2.162l49.983,27.023L293.653,2.162,346.76,29.185,399.868,2.162l47.9,27.023L505.041,0" transform="translate(0 413.586)" fill="none" stroke="#363636" stroke-width="0.3" stroke-dasharray="0 0"/><path d="M0,29.185,58.314,0l60.4,29.185L180.149,2.162l49.983,27.023L293.653,2.162,346.76,29.185,399.868,2.162l47.9,27.023,55.19-27.023" transform="translate(505.041 401.709)" fill="none" stroke="#363636" stroke-width="0.3" stroke-dasharray="0 0"/><path d="M0,29.185,60.4,2.162l58.314,27.023L180.149,2.162l49.983,27.023L293.653,2.162,346.76,29.185,399.868,2.162l47.9,27.023L505.041,0" transform="translate(0 500.914)" fill="none" stroke="#363636" stroke-width="0.3" stroke-dasharray="0 0"/><path d="M0,29.185,58.314,0l60.4,29.185L180.149,2.162l49.983,27.023L293.653,2.162,346.76,29.185,399.868,2.162l47.9,27.023,55.19-27.023" transform="translate(505.041 489.037)" fill="none" stroke="#363636" stroke-width="0.3" stroke-dasharray="0 0"/><path d="M0,29.185,60.4,2.162l58.314,27.023L180.149,2.162l49.983,27.023L293.653,2.162,346.76,29.185,399.868,2.162l47.9,27.023L505.041,0" transform="translate(0 396.121)" fill="none" stroke="#363636" stroke-width="0.3" stroke-dasharray="0 0"/><path d="M0,29.185,58.314,0l60.4,29.185L180.149,2.162l49.983,27.023L293.653,2.162,346.76,29.185,399.868,2.162l47.9,27.023,55.19-27.023" transform="translate(505.041 384.243)" fill="none" stroke="#363636" stroke-width="0.3" stroke-dasharray="0 0"/><path d="M0,29.185,60.4,2.162l58.314,27.023L180.149,2.162l49.983,27.023L293.653,2.162,346.76,29.185,399.868,2.162l47.9,27.023L505.041,0" transform="translate(0 483.449)" fill="none" stroke="#363636" stroke-width="0.3" stroke-dasharray="0 0"/><path d="M0,29.185,58.314,0l60.4,29.185L180.149,2.162l49.983,27.023L293.653,2.162,346.76,29.185,399.868,2.162l47.9,27.023,55.19-27.023" transform="translate(505.041 471.571)" fill="none" stroke="#363636" stroke-width="0.3" stroke-dasharray="0 0"/><path d="M0,29.185,60.4,2.162l58.314,27.023L180.149,2.162l49.983,27.023L293.653,2.162,346.76,29.185,399.868,2.162l47.9,27.023L505.041,0" transform="translate(0 378.655)" fill="none" stroke="#363636" stroke-width="0.3" stroke-dasharray="0 0"/><path d="M0,29.185,58.314,0l60.4,29.185L180.149,2.162l49.983,27.023L293.653,2.162,346.76,29.185,399.868,2.162l47.9,27.023,55.19-27.023" transform="translate(505.041 366.777)" fill="none" stroke="#363636" stroke-width="0.3" stroke-dasharray="0 0"/><path d="M0,29.185,60.4,2.162l58.314,27.023L180.149,2.162l49.983,27.023L293.653,2.162,346.76,29.185,399.868,2.162l47.9,27.023L505.041,0" transform="translate(0 465.983)" fill="none" stroke="#363636" stroke-width="0.3" stroke-dasharray="0 0"/><path d="M0,29.185,58.314,0l60.4,29.185L180.149,2.162l49.983,27.023L293.653,2.162,346.76,29.185,399.868,2.162l47.9,27.023,55.19-27.023" transform="translate(505.041 454.106)" fill="none" stroke="#363636" stroke-width="0.3" stroke-dasharray="0 0"/><path d="M0,29.185,60.4,2.162l58.314,27.023L180.149,2.162l49.983,27.023L293.653,2.162,346.76,29.185,399.868,2.162l47.9,27.023L505.041,0" transform="translate(0 361.19)" fill="none" stroke="#363636" stroke-width="0.3" stroke-dasharray="0 0"/><path d="M0,29.185,58.314,0l60.4,29.185L180.149,2.162l49.983,27.023L293.653,2.162,346.76,29.185,399.868,2.162l47.9,27.023,55.19-27.023" transform="translate(505.041 349.312)" fill="none" stroke="#363636" stroke-width="0.3" stroke-dasharray="0 0"/><path d="M0,29.185,60.4,2.162l58.314,27.023L180.149,2.162l49.983,27.023L293.653,2.162,346.76,29.185,399.868,2.162l47.9,27.023L505.041,0" transform="translate(0 343.724)" fill="none" stroke="#363636" stroke-width="0.3" stroke-dasharray="0 0"/><path d="M0,29.185,58.314,0l60.4,29.185L180.149,2.162l49.983,27.023L293.653,2.162,346.76,29.185,399.868,2.162l47.9,27.023,55.19-27.023" transform="translate(505.041 331.846)" fill="none" stroke="#363636" stroke-width="0.3" stroke-dasharray="0 0"/><path d="M0,29.185,60.4,2.162l58.314,27.023L180.149,2.162l49.983,27.023L293.653,2.162,346.76,29.185,399.868,2.162l47.9,27.023L505.041,0" transform="translate(0 326.258)" fill="none" stroke="#363636" stroke-width="0.3" stroke-dasharray="0 0"/><path d="M0,29.185,58.314,0l60.4,29.185L180.149,2.162l49.983,27.023L293.653,2.162,346.76,29.185,399.868,2.162l47.9,27.023,55.19-27.023" transform="translate(505.041 314.38)" fill="none" stroke="#363636" stroke-width="0.3" stroke-dasharray="0 0"/><path d="M0,29.185,60.4,2.162l58.314,27.023L180.149,2.162l49.983,27.023L293.653,2.162,346.76,29.185,399.868,2.162l47.9,27.023L505.041,0" transform="translate(0 308.793)" fill="none" stroke="#363636" stroke-width="0.3" stroke-dasharray="0 0"/><path d="M0,29.185,58.314,0l60.4,29.185L180.149,2.162l49.983,27.023L293.653,2.162,346.76,29.185,399.868,2.162l47.9,27.023,55.19-27.023" transform="translate(505.041 296.915)" fill="none" stroke="#363636" stroke-width="0.3" stroke-dasharray="0 0"/><path d="M0,29.185,60.4,2.162l58.314,27.023L180.149,2.162l49.983,27.023L293.653,2.162,346.76,29.185,399.868,2.162l47.9,27.023L505.041,0" transform="translate(0 291.327)" fill="none" stroke="#363636" stroke-width="0.3" stroke-dasharray="0 0"/><path d="M0,29.185,58.314,0l60.4,29.185L180.149,2.162l49.983,27.023L293.653,2.162,346.76,29.185,399.868,2.162l47.9,27.023,55.19-27.023" transform="translate(505.041 279.45)" fill="none" stroke="#363636" stroke-width="0.3" stroke-dasharray="0 0"/><path d="M0,29.185,60.4,2.162l58.314,27.023L180.149,2.162l49.983,27.023L293.653,2.162,346.76,29.185,399.868,2.162l47.9,27.023L505.041,0" transform="translate(0 273.861)" fill="none" stroke="#363636" stroke-width="0.3" stroke-dasharray="0 0"/><path d="M0,29.185,58.314,0l60.4,29.185L180.149,2.162l49.983,27.023L293.653,2.162,346.76,29.185,399.868,2.162l47.9,27.023,55.19-27.023" transform="translate(505.041 261.984)" fill="none" stroke="#363636" stroke-width="0.3" stroke-dasharray="0 0"/><path d="M0,29.185,60.4,2.162l58.314,27.023L180.149,2.162l49.983,27.023L293.653,2.162,346.76,29.185,399.868,2.162l47.9,27.023L505.041,0" transform="translate(0 256.396)" fill="none" stroke="#363636" stroke-width="0.3" stroke-dasharray="0 0"/><path d="M0,29.185,58.314,0l60.4,29.185L180.149,2.162l49.983,27.023L293.653,2.162,346.76,29.185,399.868,2.162l47.9,27.023,55.19-27.023" transform="translate(505.041 244.519)" fill="none" stroke="#363636" stroke-width="0.3" stroke-dasharray="0 0"/><path d="M0,29.185,60.4,2.162l58.314,27.023L180.149,2.162l49.983,27.023L293.653,2.162,346.76,29.185,399.868,2.162l47.9,27.023L505.041,0" transform="translate(0 238.931)" fill="none" stroke="#363636" stroke-width="0.3" stroke-dasharray="0 0"/><path d="M0,29.185,58.314,0l60.4,29.185L180.149,2.162l49.983,27.023L293.653,2.162,346.76,29.185,399.868,2.162l47.9,27.023,55.19-27.023" transform="translate(505.041 227.053)" fill="none" stroke="#363636" stroke-width="0.3" stroke-dasharray="0 0"/><path d="M0,29.185,60.4,2.162l58.314,27.023L180.149,2.162l49.983,27.023L293.653,2.162,346.76,29.185,399.868,2.162l47.9,27.023L505.041,0" transform="translate(0 221.465)" fill="none" stroke="#363636" stroke-width="0.3" stroke-dasharray="0 0"/><path d="M0,29.185,58.314,0l60.4,29.185L180.149,2.162l49.983,27.023L293.653,2.162,346.76,29.185,399.868,2.162l47.9,27.023,55.19-27.023" transform="translate(505.041 209.587)" fill="none" stroke="#363636" stroke-width="0.3" stroke-dasharray="0 0"/><path d="M0,29.185,60.4,2.162l58.314,27.023L180.149,2.162l49.983,27.023L293.653,2.162,346.76,29.185,399.868,2.162l47.9,27.023L505.041,0" transform="translate(0 204)" fill="none" stroke="#363636" stroke-width="0.3" stroke-dasharray="0 0"/><path d="M0,29.185,58.314,0l60.4,29.185L180.149,2.162l49.983,27.023L293.653,2.162,346.76,29.185,399.868,2.162l47.9,27.023,55.19-27.023" transform="translate(505.041 192.122)" fill="none" stroke="#363636" stroke-width="0.3" stroke-dasharray="0 0"/><path d="M0,29.185,60.4,2.162l58.314,27.023L180.149,2.162l49.983,27.023L293.653,2.162,346.76,29.185,399.868,2.162l47.9,27.023L505.041,0" transform="translate(0 186.534)" fill="none" stroke="#363636" stroke-width="0.3" stroke-dasharray="0 0"/><path d="M0,29.185,58.314,0l60.4,29.185L180.149,2.162l49.983,27.023L293.653,2.162,346.76,29.185,399.868,2.162l47.9,27.023,55.19-27.023" transform="translate(505.041 174.656)" fill="none" stroke="#363636" stroke-width="0.3" stroke-dasharray="0 0"/><path d="M0,29.185,60.4,2.162l58.314,27.023L180.149,2.162l49.983,27.023L293.653,2.162,346.76,29.185,399.868,2.162l47.9,27.023L505.041,0" transform="translate(0 169.068)" fill="none" stroke="#363636" stroke-width="0.3" stroke-dasharray="0 0"/><path d="M0,29.185,58.314,0l60.4,29.185L180.149,2.162l49.983,27.023L293.653,2.162,346.76,29.185,399.868,2.162l47.9,27.023,55.19-27.023" transform="translate(505.041 157.19)" fill="none" stroke="#363636" stroke-width="0.3" stroke-dasharray="0 0"/><path d="M0,29.185,60.4,2.162l58.314,27.023L180.149,2.162l49.983,27.023L293.653,2.162,346.76,29.185,399.868,2.162l47.9,27.023L505.041,0" transform="translate(0 151.603)" fill="none" stroke="#363636" stroke-width="0.3" stroke-dasharray="0 0"/><path d="M0,29.185,58.314,0l60.4,29.185L180.149,2.162l49.983,27.023L293.653,2.162,346.76,29.185,399.868,2.162l47.9,27.023,55.19-27.023" transform="translate(505.041 139.725)" fill="none" stroke="#363636" stroke-width="0.3" stroke-dasharray="0 0"/><path d="M0,29.185,60.4,2.162l58.314,27.023L180.149,2.162l49.983,27.023L293.653,2.162,346.76,29.185,399.868,2.162l47.9,27.023L505.041,0" transform="translate(0 134.137)" fill="none" stroke="#363636" stroke-width="0.3" stroke-dasharray="0 0"/><path d="M0,29.185,58.314,0l60.4,29.185L180.149,2.162l49.983,27.023L293.653,2.162,346.76,29.185,399.868,2.162l47.9,27.023,55.19-27.023" transform="translate(505.041 122.259)" fill="none" stroke="#363636" stroke-width="0.3" stroke-dasharray="0 0"/><path d="M0,29.185,60.4,2.162l58.314,27.023L180.149,2.162l49.983,27.023L293.653,2.162,346.76,29.185,399.868,2.162l47.9,27.023L505.041,0" transform="translate(0 116.671)" fill="none" stroke="#363636" stroke-width="0.3" stroke-dasharray="0 0"/><path d="M0,29.185,58.314,0l60.4,29.185L180.149,2.162l49.983,27.023L293.653,2.162,346.76,29.185,399.868,2.162l47.9,27.023,55.19-27.023" transform="translate(505.041 104.794)" fill="none" stroke="#363636" stroke-width="0.3" stroke-dasharray="0 0"/><path d="M0,29.185,60.4,2.162l58.314,27.023L180.149,2.162l49.983,27.023L293.653,2.162,346.76,29.185,399.868,2.162l47.9,27.023L505.041,0" transform="translate(0 99.206)" fill="none" stroke="#363636" stroke-width="0.3" stroke-dasharray="0 0"/><path d="M0,29.185,58.314,0l60.4,29.185L180.149,2.162l49.983,27.023L293.653,2.162,346.76,29.185,399.868,2.162l47.9,27.023,55.19-27.023" transform="translate(505.041 87.328)" fill="none" stroke="#363636" stroke-width="0.3" stroke-dasharray="0 0"/><path d="M0,29.185,60.4,2.162l58.314,27.023L180.149,2.162l49.983,27.023L293.653,2.162,346.76,29.185,399.868,2.162l47.9,27.023L505.041,0" transform="translate(0 81.74)" fill="none" stroke="#363636" stroke-width="0.3" stroke-dasharray="0 0"/><path d="M0,29.185,58.314,0l60.4,29.185L180.149,2.162l49.983,27.023L293.653,2.162,346.76,29.185,399.868,2.162l47.9,27.023,55.19-27.023" transform="translate(505.041 69.863)" fill="none" stroke="#363636" stroke-width="0.3" stroke-dasharray="0 0"/><path d="M0,29.185,60.4,2.162l58.314,27.023L180.149,2.162l49.983,27.023L293.653,2.162,346.76,29.185,399.868,2.162l47.9,27.023L505.041,0" transform="translate(0 64.274)" fill="none" stroke="#363636" stroke-width="0.3" stroke-dasharray="0 0"/><path d="M0,29.185,58.314,0l60.4,29.185L180.149,2.162l49.983,27.023L293.653,2.162,346.76,29.185,399.868,2.162l47.9,27.023,55.19-27.023" transform="translate(505.041 52.397)" fill="none" stroke="#363636" stroke-width="0.3" stroke-dasharray="0 0"/><path d="M0,29.185,60.4,2.162l58.314,27.023L180.149,2.162l49.983,27.023L293.653,2.162,346.76,29.185,399.868,2.162l47.9,27.023L505.041,0" transform="translate(0 46.809)" fill="none" stroke="#363636" stroke-width="0.3" stroke-dasharray="0 0"/><path d="M0,29.185,58.314,0l60.4,29.185L180.149,2.162l49.983,27.023L293.653,2.162,346.76,29.185,399.868,2.162l47.9,27.023,55.19-27.023" transform="translate(505.041 34.931)" fill="none" stroke="#363636" stroke-width="0.3" stroke-dasharray="0 0"/><path d="M0,29.185,60.4,2.162l58.314,27.023L180.149,2.162l49.983,27.023L293.653,2.162,346.76,29.185,399.868,2.162l47.9,27.023L505.041,0" transform="translate(0 29.343)" fill="none" stroke="#363636" stroke-width="0.3" stroke-dasharray="0 0"/><path d="M0,29.185,58.314,0l60.4,29.185L180.149,2.162l49.983,27.023L293.653,2.162,346.76,29.185,399.868,2.162l47.9,27.023,55.19-27.023" transform="translate(505.041 17.466)" fill="none" stroke="#363636" stroke-width="0.3" stroke-dasharray="0 0"/><path d="M0,29.185,60.4,2.162l58.314,27.023L180.149,2.162l49.983,27.023L293.653,2.162,346.76,29.185,399.868,2.162l47.9,27.023L505.041,0" transform="translate(0.001 11.878)" fill="none" stroke="#363636" stroke-width="0.3" stroke-dasharray="0 0"/><path d="M0,29.185,58.314,0l60.4,29.185L180.149,2.162l49.983,27.023L293.653,2.162,346.76,29.185,399.868,2.162l47.9,27.023,55.19-27.023" transform="translate(505.042 0)" fill="none" stroke="#363636" stroke-width="0.3" stroke-dasharray="0 0"/></g><g transform="translate(921.42 -3048.868)"><path d="M0,29.185,60.4,2.162l58.314,27.023L180.149,2.162l49.983,27.023L293.653,2.162,346.76,29.185,399.868,2.162l47.9,27.023L505.041,0" transform="translate(0 448.517)" fill="none" stroke="#363636" stroke-width="0.3" stroke-dasharray="0 0"/><path d="M0,29.185,58.314,0l60.4,29.185L180.149,2.162l49.983,27.023L293.653,2.162,346.76,29.185,399.868,2.162l47.9,27.023,55.19-27.023" transform="translate(505.041 436.64)" fill="none" stroke="#363636" stroke-width="0.3" stroke-dasharray="0 0"/><path d="M0,29.185,60.4,2.162l58.314,27.023L180.149,2.162l49.983,27.023L293.653,2.162,346.76,29.185,399.868,2.162l47.9,27.023L505.041,0" transform="translate(0 535.846)" fill="none" stroke="#363636" stroke-width="0.3" stroke-dasharray="0 0"/><path d="M0,29.185,58.314,0l60.4,29.185L180.149,2.162l49.983,27.023L293.653,2.162,346.76,29.185,399.868,2.162l47.9,27.023,55.19-27.023" transform="translate(505.041 523.968)" fill="none" stroke="#363636" stroke-width="0.3" stroke-dasharray="0 0"/><path d="M0,29.185,60.4,2.162l58.314,27.023L180.149,2.162l49.983,27.023L293.653,2.162,346.76,29.185,399.868,2.162l47.9,27.023L505.041,0" transform="translate(0 431.052)" fill="none" stroke="#363636" stroke-width="0.3" stroke-dasharray="0 0"/><path d="M0,29.185,58.314,0l60.4,29.185L180.149,2.162l49.983,27.023L293.653,2.162,346.76,29.185,399.868,2.162l47.9,27.023,55.19-27.023" transform="translate(505.041 419.174)" fill="none" stroke="#363636" stroke-width="0.3" stroke-dasharray="0 0"/><path d="M0,29.185,60.4,2.162l58.314,27.023L180.149,2.162l49.983,27.023L293.653,2.162,346.76,29.185,399.868,2.162l47.9,27.023L505.041,0" transform="translate(0 518.38)" fill="none" stroke="#363636" stroke-width="0.3" stroke-dasharray="0 0"/><path d="M0,29.185,58.314,0l60.4,29.185L180.149,2.162l49.983,27.023L293.653,2.162,346.76,29.185,399.868,2.162l47.9,27.023,55.19-27.023" transform="translate(505.041 506.502)" fill="none" stroke="#363636" stroke-width="0.3" stroke-dasharray="0 0"/><path d="M0,29.185,60.4,2.162l58.314,27.023L180.149,2.162l49.983,27.023L293.653,2.162,346.76,29.185,399.868,2.162l47.9,27.023L505.041,0" transform="translate(0 413.586)" fill="none" stroke="#363636" stroke-width="0.3" stroke-dasharray="0 0"/><path d="M0,29.185,58.314,0l60.4,29.185L180.149,2.162l49.983,27.023L293.653,2.162,346.76,29.185,399.868,2.162l47.9,27.023,55.19-27.023" transform="translate(505.041 401.709)" fill="none" stroke="#363636" stroke-width="0.3" stroke-dasharray="0 0"/><path d="M0,29.185,60.4,2.162l58.314,27.023L180.149,2.162l49.983,27.023L293.653,2.162,346.76,29.185,399.868,2.162l47.9,27.023L505.041,0" transform="translate(0 500.914)" fill="none" stroke="#363636" stroke-width="0.3" stroke-dasharray="0 0"/><path d="M0,29.185,58.314,0l60.4,29.185L180.149,2.162l49.983,27.023L293.653,2.162,346.76,29.185,399.868,2.162l47.9,27.023,55.19-27.023" transform="translate(505.041 489.037)" fill="none" stroke="#363636" stroke-width="0.3" stroke-dasharray="0 0"/><path d="M0,29.185,60.4,2.162l58.314,27.023L180.149,2.162l49.983,27.023L293.653,2.162,346.76,29.185,399.868,2.162l47.9,27.023L505.041,0" transform="translate(0 396.121)" fill="none" stroke="#363636" stroke-width="0.3" stroke-dasharray="0 0"/><path d="M0,29.185,58.314,0l60.4,29.185L180.149,2.162l49.983,27.023L293.653,2.162,346.76,29.185,399.868,2.162l47.9,27.023,55.19-27.023" transform="translate(505.041 384.243)" fill="none" stroke="#363636" stroke-width="0.3" stroke-dasharray="0 0"/><path d="M0,29.185,60.4,2.162l58.314,27.023L180.149,2.162l49.983,27.023L293.653,2.162,346.76,29.185,399.868,2.162l47.9,27.023L505.041,0" transform="translate(0 483.449)" fill="none" stroke="#363636" stroke-width="0.3" stroke-dasharray="0 0"/><path d="M0,29.185,58.314,0l60.4,29.185L180.149,2.162l49.983,27.023L293.653,2.162,346.76,29.185,399.868,2.162l47.9,27.023,55.19-27.023" transform="translate(505.041 471.571)" fill="none" stroke="#363636" stroke-width="0.3" stroke-dasharray="0 0"/><path d="M0,29.185,60.4,2.162l58.314,27.023L180.149,2.162l49.983,27.023L293.653,2.162,346.76,29.185,399.868,2.162l47.9,27.023L505.041,0" transform="translate(0 378.655)" fill="none" stroke="#363636" stroke-width="0.3" stroke-dasharray="0 0"/><path d="M0,29.185,58.314,0l60.4,29.185L180.149,2.162l49.983,27.023L293.653,2.162,346.76,29.185,399.868,2.162l47.9,27.023,55.19-27.023" transform="translate(505.041 366.777)" fill="none" stroke="#363636" stroke-width="0.3" stroke-dasharray="0 0"/><path d="M0,29.185,60.4,2.162l58.314,27.023L180.149,2.162l49.983,27.023L293.653,2.162,346.76,29.185,399.868,2.162l47.9,27.023L505.041,0" transform="translate(0 465.983)" fill="none" stroke="#363636" stroke-width="0.3" stroke-dasharray="0 0"/><path d="M0,29.185,58.314,0l60.4,29.185L180.149,2.162l49.983,27.023L293.653,2.162,346.76,29.185,399.868,2.162l47.9,27.023,55.19-27.023" transform="translate(505.041 454.106)" fill="none" stroke="#363636" stroke-width="0.3" stroke-dasharray="0 0"/><path d="M0,29.185,60.4,2.162l58.314,27.023L180.149,2.162l49.983,27.023L293.653,2.162,346.76,29.185,399.868,2.162l47.9,27.023L505.041,0" transform="translate(0 361.19)" fill="none" stroke="#363636" stroke-width="0.3" stroke-dasharray="0 0"/><path d="M0,29.185,58.314,0l60.4,29.185L180.149,2.162l49.983,27.023L293.653,2.162,346.76,29.185,399.868,2.162l47.9,27.023,55.19-27.023" transform="translate(505.041 349.312)" fill="none" stroke="#363636" stroke-width="0.3" stroke-dasharray="0 0"/><path d="M0,29.185,60.4,2.162l58.314,27.023L180.149,2.162l49.983,27.023L293.653,2.162,346.76,29.185,399.868,2.162l47.9,27.023L505.041,0" transform="translate(0 343.724)" fill="none" stroke="#363636" stroke-width="0.3" stroke-dasharray="0 0"/><path d="M0,29.185,58.314,0l60.4,29.185L180.149,2.162l49.983,27.023L293.653,2.162,346.76,29.185,399.868,2.162l47.9,27.023,55.19-27.023" transform="translate(505.041 331.846)" fill="none" stroke="#363636" stroke-width="0.3" stroke-dasharray="0 0"/><path d="M0,29.185,60.4,2.162l58.314,27.023L180.149,2.162l49.983,27.023L293.653,2.162,346.76,29.185,399.868,2.162l47.9,27.023L505.041,0" transform="translate(0 326.258)" fill="none" stroke="#363636" stroke-width="0.3" stroke-dasharray="0 0"/><path d="M0,29.185,58.314,0l60.4,29.185L180.149,2.162l49.983,27.023L293.653,2.162,346.76,29.185,399.868,2.162l47.9,27.023,55.19-27.023" transform="translate(505.041 314.38)" fill="none" stroke="#363636" stroke-width="0.3" stroke-dasharray="0 0"/><path d="M0,29.185,60.4,2.162l58.314,27.023L180.149,2.162l49.983,27.023L293.653,2.162,346.76,29.185,399.868,2.162l47.9,27.023L505.041,0" transform="translate(0 308.793)" fill="none" stroke="#363636" stroke-width="0.3" stroke-dasharray="0 0"/><path d="M0,29.185,58.314,0l60.4,29.185L180.149,2.162l49.983,27.023L293.653,2.162,346.76,29.185,399.868,2.162l47.9,27.023,55.19-27.023" transform="translate(505.041 296.915)" fill="none" stroke="#363636" stroke-width="0.3" stroke-dasharray="0 0"/><path d="M0,29.185,60.4,2.162l58.314,27.023L180.149,2.162l49.983,27.023L293.653,2.162,346.76,29.185,399.868,2.162l47.9,27.023L505.041,0" transform="translate(0 291.327)" fill="none" stroke="#363636" stroke-width="0.3" stroke-dasharray="0 0"/><path d="M0,29.185,58.314,0l60.4,29.185L180.149,2.162l49.983,27.023L293.653,2.162,346.76,29.185,399.868,2.162l47.9,27.023,55.19-27.023" transform="translate(505.041 279.45)" fill="none" stroke="#363636" stroke-width="0.3" stroke-dasharray="0 0"/><path d="M0,29.185,60.4,2.162l58.314,27.023L180.149,2.162l49.983,27.023L293.653,2.162,346.76,29.185,399.868,2.162l47.9,27.023L505.041,0" transform="translate(0 273.861)" fill="none" stroke="#363636" stroke-width="0.3" stroke-dasharray="0 0"/><path d="M0,29.185,58.314,0l60.4,29.185L180.149,2.162l49.983,27.023L293.653,2.162,346.76,29.185,399.868,2.162l47.9,27.023,55.19-27.023" transform="translate(505.041 261.984)" fill="none" stroke="#363636" stroke-width="0.3" stroke-dasharray="0 0"/><path d="M0,29.185,60.4,2.162l58.314,27.023L180.149,2.162l49.983,27.023L293.653,2.162,346.76,29.185,399.868,2.162l47.9,27.023L505.041,0" transform="translate(0 256.396)" fill="none" stroke="#363636" stroke-width="0.3" stroke-dasharray="0 0"/><path d="M0,29.185,58.314,0l60.4,29.185L180.149,2.162l49.983,27.023L293.653,2.162,346.76,29.185,399.868,2.162l47.9,27.023,55.19-27.023" transform="translate(505.041 244.519)" fill="none" stroke="#363636" stroke-width="0.3" stroke-dasharray="0 0"/><path d="M0,29.185,60.4,2.162l58.314,27.023L180.149,2.162l49.983,27.023L293.653,2.162,346.76,29.185,399.868,2.162l47.9,27.023L505.041,0" transform="translate(0 238.931)" fill="none" stroke="#363636" stroke-width="0.3" stroke-dasharray="0 0"/><path d="M0,29.185,58.314,0l60.4,29.185L180.149,2.162l49.983,27.023L293.653,2.162,346.76,29.185,399.868,2.162l47.9,27.023,55.19-27.023" transform="translate(505.041 227.053)" fill="none" stroke="#363636" stroke-width="0.3" stroke-dasharray="0 0"/><path d="M0,29.185,60.4,2.162l58.314,27.023L180.149,2.162l49.983,27.023L293.653,2.162,346.76,29.185,399.868,2.162l47.9,27.023L505.041,0" transform="translate(0 221.465)" fill="none" stroke="#363636" stroke-width="0.3" stroke-dasharray="0 0"/><path d="M0,29.185,58.314,0l60.4,29.185L180.149,2.162l49.983,27.023L293.653,2.162,346.76,29.185,399.868,2.162l47.9,27.023,55.19-27.023" transform="translate(505.041 209.587)" fill="none" stroke="#363636" stroke-width="0.3" stroke-dasharray="0 0"/><path d="M0,29.185,60.4,2.162l58.314,27.023L180.149,2.162l49.983,27.023L293.653,2.162,346.76,29.185,399.868,2.162l47.9,27.023L505.041,0" transform="translate(0 204)" fill="none" stroke="#363636" stroke-width="0.3" stroke-dasharray="0 0"/><path d="M0,29.185,58.314,0l60.4,29.185L180.149,2.162l49.983,27.023L293.653,2.162,346.76,29.185,399.868,2.162l47.9,27.023,55.19-27.023" transform="translate(505.041 192.122)" fill="none" stroke="#363636" stroke-width="0.3" stroke-dasharray="0 0"/><path d="M0,29.185,60.4,2.162l58.314,27.023L180.149,2.162l49.983,27.023L293.653,2.162,346.76,29.185,399.868,2.162l47.9,27.023L505.041,0" transform="translate(0 186.534)" fill="none" stroke="#363636" stroke-width="0.3" stroke-dasharray="0 0"/><path d="M0,29.185,58.314,0l60.4,29.185L180.149,2.162l49.983,27.023L293.653,2.162,346.76,29.185,399.868,2.162l47.9,27.023,55.19-27.023" transform="translate(505.041 174.656)" fill="none" stroke="#363636" stroke-width="0.3" stroke-dasharray="0 0"/><path d="M0,29.185,60.4,2.162l58.314,27.023L180.149,2.162l49.983,27.023L293.653,2.162,346.76,29.185,399.868,2.162l47.9,27.023L505.041,0" transform="translate(0 169.068)" fill="none" stroke="#363636" stroke-width="0.3" stroke-dasharray="0 0"/><path d="M0,29.185,58.314,0l60.4,29.185L180.149,2.162l49.983,27.023L293.653,2.162,346.76,29.185,399.868,2.162l47.9,27.023,55.19-27.023" transform="translate(505.041 157.19)" fill="none" stroke="#363636" stroke-width="0.3" stroke-dasharray="0 0"/><path d="M0,29.185,60.4,2.162l58.314,27.023L180.149,2.162l49.983,27.023L293.653,2.162,346.76,29.185,399.868,2.162l47.9,27.023L505.041,0" transform="translate(0 151.603)" fill="none" stroke="#363636" stroke-width="0.3" stroke-dasharray="0 0"/><path d="M0,29.185,58.314,0l60.4,29.185L180.149,2.162l49.983,27.023L293.653,2.162,346.76,29.185,399.868,2.162l47.9,27.023,55.19-27.023" transform="translate(505.041 139.725)" fill="none" stroke="#363636" stroke-width="0.3" stroke-dasharray="0 0"/><path d="M0,29.185,60.4,2.162l58.314,27.023L180.149,2.162l49.983,27.023L293.653,2.162,346.76,29.185,399.868,2.162l47.9,27.023L505.041,0" transform="translate(0 134.137)" fill="none" stroke="#363636" stroke-width="0.3" stroke-dasharray="0 0"/><path d="M0,29.185,58.314,0l60.4,29.185L180.149,2.162l49.983,27.023L293.653,2.162,346.76,29.185,399.868,2.162l47.9,27.023,55.19-27.023" transform="translate(505.041 122.259)" fill="none" stroke="#363636" stroke-width="0.3" stroke-dasharray="0 0"/><path d="M0,29.185,60.4,2.162l58.314,27.023L180.149,2.162l49.983,27.023L293.653,2.162,346.76,29.185,399.868,2.162l47.9,27.023L505.041,0" transform="translate(0 116.671)" fill="none" stroke="#363636" stroke-width="0.3" stroke-dasharray="0 0"/><path d="M0,29.185,58.314,0l60.4,29.185L180.149,2.162l49.983,27.023L293.653,2.162,346.76,29.185,399.868,2.162l47.9,27.023,55.19-27.023" transform="translate(505.041 104.794)" fill="none" stroke="#363636" stroke-width="0.3" stroke-dasharray="0 0"/><path d="M0,29.185,60.4,2.162l58.314,27.023L180.149,2.162l49.983,27.023L293.653,2.162,346.76,29.185,399.868,2.162l47.9,27.023L505.041,0" transform="translate(0 99.206)" fill="none" stroke="#363636" stroke-width="0.3" stroke-dasharray="0 0"/><path d="M0,29.185,58.314,0l60.4,29.185L180.149,2.162l49.983,27.023L293.653,2.162,346.76,29.185,399.868,2.162l47.9,27.023,55.19-27.023" transform="translate(505.041 87.328)" fill="none" stroke="#363636" stroke-width="0.3" stroke-dasharray="0 0"/><path d="M0,29.185,60.4,2.162l58.314,27.023L180.149,2.162l49.983,27.023L293.653,2.162,346.76,29.185,399.868,2.162l47.9,27.023L505.041,0" transform="translate(0 81.74)" fill="none" stroke="#363636" stroke-width="0.3" stroke-dasharray="0 0"/><path d="M0,29.185,58.314,0l60.4,29.185L180.149,2.162l49.983,27.023L293.653,2.162,346.76,29.185,399.868,2.162l47.9,27.023,55.19-27.023" transform="translate(505.041 69.863)" fill="none" stroke="#363636" stroke-width="0.3" stroke-dasharray="0 0"/><path d="M0,29.185,60.4,2.162l58.314,27.023L180.149,2.162l49.983,27.023L293.653,2.162,346.76,29.185,399.868,2.162l47.9,27.023L505.041,0" transform="translate(0 64.274)" fill="none" stroke="#363636" stroke-width="0.3" stroke-dasharray="0 0"/><path d="M0,29.185,58.314,0l60.4,29.185L180.149,2.162l49.983,27.023L293.653,2.162,346.76,29.185,399.868,2.162l47.9,27.023,55.19-27.023" transform="translate(505.041 52.397)" fill="none" stroke="#363636" stroke-width="0.3" stroke-dasharray="0 0"/><path d="M0,29.185,60.4,2.162l58.314,27.023L180.149,2.162l49.983,27.023L293.653,2.162,346.76,29.185,399.868,2.162l47.9,27.023L505.041,0" transform="translate(0 46.809)" fill="none" stroke="#363636" stroke-width="0.3" stroke-dasharray="0 0"/><path d="M0,29.185,58.314,0l60.4,29.185L180.149,2.162l49.983,27.023L293.653,2.162,346.76,29.185,399.868,2.162l47.9,27.023,55.19-27.023" transform="translate(505.041 34.931)" fill="none" stroke="#363636" stroke-width="0.3" stroke-dasharray="0 0"/><path d="M0,29.185,60.4,2.162l58.314,27.023L180.149,2.162l49.983,27.023L293.653,2.162,346.76,29.185,399.868,2.162l47.9,27.023L505.041,0" transform="translate(0 29.343)" fill="none" stroke="#363636" stroke-width="0.3" stroke-dasharray="0 0"/><path d="M0,29.185,58.314,0l60.4,29.185L180.149,2.162l49.983,27.023L293.653,2.162,346.76,29.185,399.868,2.162l47.9,27.023,55.19-27.023" transform="translate(505.041 17.466)" fill="none" stroke="#363636" stroke-width="0.3" stroke-dasharray="0 0"/><path d="M0,29.185,60.4,2.162l58.314,27.023L180.149,2.162l49.983,27.023L293.653,2.162,346.76,29.185,399.868,2.162l47.9,27.023L505.041,0" transform="translate(0.001 11.878)" fill="none" stroke="#363636" stroke-width="0.3" stroke-dasharray="0 0"/><path d="M0,29.185,58.314,0l60.4,29.185L180.149,2.162l49.983,27.023L293.653,2.162,346.76,29.185,399.868,2.162l47.9,27.023,55.19-27.023" transform="translate(505.042)" fill="none" stroke="#363636" stroke-width="0.3" stroke-dasharray="0 0"/></g></g></g></svg>