<svg id="google-play-btn" xmlns="http://www.w3.org/2000/svg" width="221.853" height="64.866" viewBox="0 0 221.853 64.866">
  <g id="google-play-icon" transform="translate(0 0)">
    <g id="Grupo_56" data-name="Grupo 56">
      <g id="Grupo_51" data-name="Grupo 51">
        <path id="Caminho_2136" data-name="Caminho 2136" d="M211,65.066H10.975C4.933,65.066,0,60.75,0,55.447V9.819C0,4.516,4.933.2,10.975.2h199.9c6.043,0,10.975,4.316,10.975,9.619V55.447C221.974,60.75,217.042,65.066,211,65.066ZM10.975,2.42c-4.563,0-8.262,3.33-8.262,7.276V55.324c0,4.07,3.823,7.276,8.386,7.276H211c4.686,0,8.386-3.33,8.386-7.276V9.7c0-4.07-3.823-7.276-8.386-7.276Z" transform="translate(0 -0.2)" fill="#fff"/>
      </g>
      <g id="Grupo_52" data-name="Grupo 52" transform="translate(20.101 13.565)">
        <path id="Caminho_2137" data-name="Caminho 2137" d="M16.423,30.133V13.485a2.787,2.787,0,0,1,.617-1.85c.247-.247.37-.247.493,0,3.7,3.823,7.4,7.522,11.222,11.469,2.343,2.466,4.809,4.933,7.153,7.276.247.247.247.37,0,.617-5.919,5.8-11.839,11.839-17.758,17.758-.37.37-.617.37-.987,0A2.219,2.219,0,0,1,16.3,46.9V37.039c.123-2.343.123-4.686.123-6.906Z" transform="translate(-16.3 -11.142)" fill="#fff"/>
        <path id="Caminho_2138" data-name="Caminho 2138" d="M18.1,11.2a2.945,2.945,0,0,1,1.11.247c7.522,4.193,15.168,8.509,22.691,12.7.37.247.37.247.123.617-1.726,1.6-3.33,3.33-5.056,4.933-.123.123-.247.247-.493,0-6.043-6.043-12.085-12.332-18.128-18.375A.382.382,0,0,1,18.1,11.2Z" transform="translate(-15.88 -11.2)" fill="#fff"/>
        <path id="Caminho_2139" data-name="Caminho 2139" d="M19.5,44.792c5.426-5.549,11.1-11.1,16.525-16.648.37-.37.493-.247.74,0,1.357,1.48,2.836,2.836,4.193,4.316.247.247.247.37-.123.493C33.805,36.776,26.653,40.6,19.747,44.546Z" transform="translate(-15.554 -7.303)" fill="#fff"/>
        <path id="Caminho_2140" data-name="Caminho 2140" d="M47.577,27.741a1.672,1.672,0,0,1-.74,1.357,11.373,11.373,0,0,1-.987.617c-2.1,1.11-4.193,2.343-6.413,3.453a.581.581,0,0,1-.74-.123c-1.48-1.6-3.083-3.083-4.563-4.686-.247-.247-.247-.37,0-.617,1.726-1.726,3.576-3.453,5.3-5.3.247-.247.37-.247.617-.123,2.1,1.233,4.193,2.343,6.289,3.576C47.083,26.508,47.577,27,47.577,27.741Z" transform="translate(-12.184 -8.627)" fill="#fff"/>
      </g>
      <g id="Grupo_55" data-name="Grupo 55" transform="translate(70.415 9.989)">
        <g id="Grupo_54" data-name="Grupo 54" transform="translate(0.247)">
          <g id="Grupo_53" data-name="Grupo 53">
            <path id="Caminho_2141" data-name="Caminho 2141" d="M57.3,8.923A20.007,20.007,0,0,1,60.136,8.8a6.109,6.109,0,0,1,4.193,1.357,5.1,5.1,0,0,1,1.48,3.7,5.5,5.5,0,0,1-1.48,3.946,6.152,6.152,0,0,1-4.563,1.48,15.723,15.723,0,0,1-2.466-.123C57.3,19.035,57.3,8.923,57.3,8.923Zm1.48,9.126c.247,0,.863.123,1.357.123,2.836,0,4.439-1.6,4.439-4.439,0-2.466-1.357-3.946-4.193-3.946a6.028,6.028,0,0,0-1.6.123v8.016h0Z" transform="translate(-57.3 -8.183)" fill="#fff"/>
            <path id="Caminho_2142" data-name="Caminho 2142" d="M67.126,9.563a.779.779,0,0,1-.863.863.927.927,0,0,1-.863-.863.837.837,0,0,1,.863-.863C66.88,8.823,67.126,9.07,67.126,9.563Zm-1.48,9.5v-7.4H67v7.4Z" transform="translate(-55.411 -8.207)" fill="#fff"/>
            <path id="Caminho_2143" data-name="Caminho 2143" d="M68.447,17.166a4.143,4.143,0,0,0,1.726.617c.987,0,1.48-.493,1.48-1.11s-.493-.987-1.357-1.357c-1.357-.493-1.85-1.11-1.85-2.1A2.353,2.353,0,0,1,70.913,11c.74,0,1.48.123,1.726.493l-.247.863a3.434,3.434,0,0,0-1.48-.493,1.008,1.008,0,0,0-1.11.987c0,.617.493.863,1.48,1.357,1.357.493,1.85,1.11,1.85,2.22,0,1.357-.987,2.22-2.836,2.22a3.528,3.528,0,0,1-2.1-.493Z" transform="translate(-54.758 -7.67)" fill="#fff"/>
            <path id="Caminho_2144" data-name="Caminho 2144" d="M73.547,13.59V11.123h1.11V12.48h0A3.169,3.169,0,0,1,77.246,11c1.726,0,3.083,1.48,3.083,3.823,0,2.59-1.6,3.946-3.33,3.946a3.053,3.053,0,0,1-2.343-1.11h0v4.07H73.3V13.713h.247Zm1.233,1.973v.617a2.142,2.142,0,0,0,2.1,1.6c1.48,0,2.22-1.11,2.22-2.96,0-1.48-.74-2.836-2.22-2.836a2.34,2.34,0,0,0-2.1,1.6c0,.123-.123.493-.123.617v1.357Z" transform="translate(-53.569 -7.67)" fill="#fff"/>
            <path id="Caminho_2145" data-name="Caminho 2145" d="M87.253,14.723c0,2.836-1.85,3.946-3.7,3.946-2.1,0-3.453-1.48-3.453-3.823A3.63,3.63,0,0,1,83.8,10.9C85.9,10.9,87.253,12.5,87.253,14.723Zm-5.8.123c0,1.6.863,2.836,2.22,2.836s2.22-1.11,2.22-2.96c0-1.357-.617-2.836-2.22-2.836C82.073,12.01,81.457,13.49,81.457,14.846Z" transform="translate(-51.983 -7.694)" fill="#fff"/>
            <path id="Caminho_2146" data-name="Caminho 2146" d="M87.323,13.166v-2.1h.987l.123,1.11h0A2.74,2.74,0,0,1,90.9,10.7c.987,0,2.59.617,2.59,3.206v4.563H92.133V14.276c0-1.11-.493-2.22-1.726-2.22a1.739,1.739,0,0,0-1.726,1.357c0,.123-.123.493-.123.617v4.439H87.2v-5.3Z" transform="translate(-50.328 -7.74)" fill="#fff"/>
            <path id="Caminho_2147" data-name="Caminho 2147" d="M96.936,8.6l-1.85,2.22H94.1L95.456,8.6ZM94.223,19.082v-7.4H95.58v7.4Z" transform="translate(-48.719 -8.23)" fill="#fff"/>
            <path id="Caminho_2148" data-name="Caminho 2148" d="M97.78,11.2l1.48,4.07c.247.74.493,1.357.617,1.85h0c.123-.617.493-1.11.617-1.85l1.48-4.07h1.48l-2.96,7.4H99.136L96.3,11.2Z" transform="translate(-48.206 -7.624)" fill="#fff"/>
            <path id="Caminho_2149" data-name="Caminho 2149" d="M103.757,15.193a2.364,2.364,0,0,0,2.466,2.59,3.3,3.3,0,0,0,2.1-.493l.247.987a8.507,8.507,0,0,1-2.466.493,3.468,3.468,0,0,1-3.7-3.823c0-2.22,1.357-3.946,3.453-3.946,2.466,0,3.083,2.22,3.083,3.453v.617h-5.179Zm3.946-1.11c0-.863-.247-2.22-1.85-2.22-1.356,0-1.85,1.357-2.1,2.22Z" transform="translate(-46.783 -7.67)" fill="#fff"/>
            <path id="Caminho_2150" data-name="Caminho 2150" d="M109.1,8.3h1.357V19.152H109.1Z" transform="translate(-45.221 -8.3)" fill="#fff"/>
            <path id="Caminho_2151" data-name="Caminho 2151" d="M114.7,13.166v-2.1h1.11l.123,1.11h0A2.74,2.74,0,0,1,118.4,10.7c.987,0,2.59.617,2.59,3.206v4.563h-1.357V14.276c0-1.11-.493-2.22-1.726-2.22a1.739,1.739,0,0,0-1.726,1.357c0,.123-.123.493-.123.617v4.439H114.7V13.413h0Z" transform="translate(-43.915 -7.74)" fill="#fff"/>
            <path id="Caminho_2152" data-name="Caminho 2152" d="M125.763,18.522l-.123-.863h0a2.622,2.622,0,0,1-2.22,1.11,2.07,2.07,0,0,1-2.22-2.22c0-1.726,1.6-2.836,4.439-2.836V13.59a1.525,1.525,0,0,0-1.726-1.726,2.265,2.265,0,0,0-1.85.617l-.247-.863A3.88,3.88,0,0,1,124.283,11c2.22,0,2.836,1.6,2.836,3.083v2.836a7.055,7.055,0,0,0,.123,1.726h-1.357v-.123Zm-.247-3.823c-1.48,0-3.083.247-3.083,1.6a1.294,1.294,0,0,0,1.357,1.357,1.722,1.722,0,0,0,1.726-1.11c0-.123.123-.247.123-.493V14.7Z" transform="translate(-42.399 -7.67)" fill="#fff"/>
          </g>
        </g>
        <path id="Caminho_2153" data-name="Caminho 2153" d="M100.262,29.622a6.783,6.783,0,1,0,6.783,6.783A6.542,6.542,0,0,0,100.262,29.622Zm0,11.1a4.2,4.2,0,1,1,3.946-4.193A4.112,4.112,0,0,1,100.262,40.721ZM85.34,29.622a6.783,6.783,0,0,0,0,13.565,6.763,6.763,0,0,0,6.783-6.783A6.542,6.542,0,0,0,85.34,29.622Zm0,11.1a4.2,4.2,0,1,1,3.946-4.193A4.287,4.287,0,0,1,85.34,40.721Zm-17.881-9v2.96h7.029a5.366,5.366,0,0,1-1.48,3.576,7.329,7.329,0,0,1-5.3,2.1,7.646,7.646,0,0,1,0-15.292,7.748,7.748,0,0,1,5.3,2.1l2.1-2.1a9.9,9.9,0,0,0-7.276-2.96,10.606,10.606,0,1,0,0,21.211,9.481,9.481,0,0,0,7.4-2.96,9.3,9.3,0,0,0,2.466-6.783,8.734,8.734,0,0,0-.123-1.85Zm73,2.22a6.339,6.339,0,0,0-12.332,2.466,6.775,6.775,0,0,0,12.455,3.7l-2.343-1.48a4.172,4.172,0,0,1-3.33,1.973,3.511,3.511,0,0,1-3.33-2.1l9.249-3.823Zm-9.372,2.22a3.786,3.786,0,0,1,3.576-4.07,2.525,2.525,0,0,1,2.466,1.357Zm-7.522,6.783h3.083V22.84h-3.083ZM118.76,31.226h0a5.188,5.188,0,0,0-3.823-1.48,6.8,6.8,0,0,0-6.536,6.783,6.714,6.714,0,0,0,6.536,6.783,4.629,4.629,0,0,0,3.576-1.48h.123v.987c0,2.713-1.357,4.07-3.576,4.07a3.747,3.747,0,0,1-3.453-2.343l-2.713,1.11a6.613,6.613,0,0,0,6.166,4.07c3.453,0,6.536-2.1,6.536-7.153V30.239H118.76v.987Zm-3.576,9.5a3.937,3.937,0,0,1-3.823-4.193,4.013,4.013,0,0,1,3.823-4.193c2.1,0,3.576,1.85,3.576,4.193S117.28,40.721,115.183,40.721ZM154.645,22.84H147.37v20.1h3.083V35.3h4.193a6.286,6.286,0,0,0,6.536-6.289C161.181,25.06,157.975,22.84,154.645,22.84Zm0,9.619h-4.193V25.676h4.316a3.438,3.438,0,0,1,3.453,3.453A3.624,3.624,0,0,1,154.645,32.459Zm18.5-2.836a5.5,5.5,0,0,0-5.3,3.083l2.713,1.11a3.041,3.041,0,0,1,2.836-1.48,3.091,3.091,0,0,1,3.206,2.713v.123a7.725,7.725,0,0,0-3.083-.863c-2.96,0-5.919,1.48-5.919,4.439,0,2.713,2.343,4.439,5.056,4.439a4.23,4.23,0,0,0,3.823-1.973h.123v1.48h2.96V35.049C179.309,31.6,176.719,29.622,173.143,29.622Zm-.247,11.1c-.987,0-2.343-.617-2.343-1.726,0-1.48,1.726-2.1,3.206-2.1a5.109,5.109,0,0,1,2.836.74A4.075,4.075,0,0,1,172.9,40.721Zm17.018-10.605-3.453,8.756h-.123l-3.576-8.756h-3.206l5.3,12.209-3.083,6.783h3.083l8.262-18.991ZM162.908,42.941h3.083V22.84h-3.083Z" transform="translate(-57.1 -5.082)" fill="#fff"/>
      </g>
    </g>
  </g>
</svg>
