<svg id="google-play-btn-grey" xmlns="http://www.w3.org/2000/svg" width="212.725" height="62.197" viewBox="0 0 212.725 62.197">
  <g id="google-play-icon" transform="translate(0 0)">
    <g id="Grupo_56" data-name="Grupo 56">
      <g id="Grupo_51" data-name="Grupo 51">
        <path id="Caminho_2136" data-name="Caminho 2136" d="M202.317,62.4H10.524C4.73,62.4,0,58.258,0,53.174V9.423C0,4.339,4.73.2,10.524.2H202.2c5.794,0,10.524,4.139,10.524,9.223V53.174C212.841,58.258,208.111,62.4,202.317,62.4ZM10.524,2.328C6.149,2.328,2.6,5.521,2.6,9.3V53.056c0,3.9,3.666,6.976,8.041,6.976H202.317c4.493,0,8.041-3.193,8.041-6.976V9.3c0-3.9-3.666-6.976-8.041-6.976Z" transform="translate(0 -0.2)" fill="#464646"/>
      </g>
      <g id="Grupo_52" data-name="Grupo 52" transform="translate(19.274 13.007)">
        <path id="Caminho_2137" data-name="Caminho 2137" d="M16.418,29.364V13.4a2.672,2.672,0,0,1,.591-1.774c.236-.236.355-.236.473,0,3.547,3.666,7.095,7.213,10.76,11,2.247,2.365,4.612,4.73,6.858,6.976.236.236.236.355,0,.591-5.676,5.558-11.352,11.352-17.027,17.027-.355.355-.591.355-.946,0a2.127,2.127,0,0,1-.828-1.774v-9.46c.118-2.247.118-4.493.118-6.622Z" transform="translate(-16.3 -11.154)" fill="#464646"/>
        <path id="Caminho_2138" data-name="Caminho 2138" d="M18.1,11.2a2.824,2.824,0,0,1,1.064.236c7.213,4.02,14.544,8.159,21.757,12.179.355.236.355.236.118.591-1.655,1.537-3.193,3.193-4.848,4.73-.118.118-.236.236-.473,0C29.925,23.143,24.13,17.112,18.336,11.318A.366.366,0,0,1,18.1,11.2Z" transform="translate(-15.972 -11.2)" fill="#464646"/>
        <path id="Caminho_2139" data-name="Caminho 2139" d="M19.5,44.1c5.2-5.321,10.642-10.642,15.845-15.963.355-.355.473-.236.709,0,1.3,1.419,2.72,2.72,4.02,4.139.236.236.236.355-.118.473-6.74,3.666-13.6,7.331-20.22,11.115Z" transform="translate(-15.716 -8.151)" fill="#464646"/>
        <path id="Caminho_2140" data-name="Caminho 2140" d="M47.016,27.515a1.6,1.6,0,0,1-.709,1.3,10.906,10.906,0,0,1-.946.591c-2.01,1.064-4.02,2.247-6.149,3.311A.557.557,0,0,1,38.5,32.6c-1.419-1.537-2.956-2.956-4.375-4.493-.236-.236-.236-.355,0-.591,1.655-1.655,3.429-3.311,5.085-5.085.236-.236.355-.236.591-.118,2.01,1.182,4.02,2.247,6.03,3.429C46.543,26.332,47.016,26.805,47.016,27.515Z" transform="translate(-13.08 -9.187)" fill="#464646"/>
      </g>
      <g id="Grupo_55" data-name="Grupo 55" transform="translate(67.518 9.578)">
        <g id="Grupo_54" data-name="Grupo 54" transform="translate(0.236)">
          <g id="Grupo_53" data-name="Grupo 53">
            <path id="Caminho_2141" data-name="Caminho 2141" d="M57.3,8.918A19.183,19.183,0,0,1,60.02,8.8a5.858,5.858,0,0,1,4.02,1.3,4.888,4.888,0,0,1,1.419,3.547,5.27,5.27,0,0,1-1.419,3.784,5.9,5.9,0,0,1-4.375,1.419,15.076,15.076,0,0,1-2.365-.118C57.3,18.614,57.3,8.918,57.3,8.918Zm1.419,8.75c.236,0,.828.118,1.3.118,2.72,0,4.257-1.537,4.257-4.257,0-2.365-1.3-3.784-4.02-3.784a5.78,5.78,0,0,0-1.537.118V17.55h0Z" transform="translate(-57.3 -8.209)" fill="#464646"/>
            <path id="Caminho_2142" data-name="Caminho 2142" d="M67.055,9.528a.747.747,0,0,1-.828.828.888.888,0,0,1-.828-.828.8.8,0,0,1,.828-.828C66.819,8.818,67.055,9.055,67.055,9.528Zm-1.419,9.1V11.538h1.3v7.095Z" transform="translate(-55.822 -8.227)" fill="#464646"/>
            <path id="Caminho_2143" data-name="Caminho 2143" d="M68.436,16.912a3.972,3.972,0,0,0,1.655.591c.946,0,1.419-.473,1.419-1.064s-.473-.946-1.3-1.3c-1.3-.473-1.774-1.064-1.774-2.01A2.256,2.256,0,0,1,70.8,11c.709,0,1.419.118,1.655.473l-.236.828a3.293,3.293,0,0,0-1.419-.473.967.967,0,0,0-1.064.946c0,.591.473.828,1.419,1.3,1.3.473,1.774,1.064,1.774,2.128,0,1.3-.946,2.128-2.72,2.128a3.383,3.383,0,0,1-2.01-.473Z" transform="translate(-55.311 -7.807)" fill="#464646"/>
            <path id="Caminho_2144" data-name="Caminho 2144" d="M73.536,13.483V11.118H74.6v1.3h0A3.039,3.039,0,0,1,77.084,11c1.655,0,2.956,1.419,2.956,3.666,0,2.483-1.537,3.784-3.193,3.784A2.927,2.927,0,0,1,74.6,17.385h0v3.9H73.3V13.6h.236Zm1.182,1.892v.591a2.054,2.054,0,0,0,2.01,1.537c1.419,0,2.128-1.064,2.128-2.838,0-1.419-.709-2.72-2.128-2.72a2.244,2.244,0,0,0-2.01,1.537c0,.118-.118.473-.118.591v1.3Z" transform="translate(-54.381 -7.807)" fill="#464646"/>
            <path id="Caminho_2145" data-name="Caminho 2145" d="M86.958,14.566a3.411,3.411,0,0,1-3.547,3.784c-2.01,0-3.311-1.419-3.311-3.666A3.481,3.481,0,0,1,83.647,10.9C85.658,10.9,86.958,12.437,86.958,14.566Zm-5.558.118c0,1.537.828,2.72,2.128,2.72s2.128-1.064,2.128-2.838c0-1.3-.591-2.72-2.128-2.72C81.992,11.964,81.4,13.383,81.4,14.684Z" transform="translate(-53.14 -7.826)" fill="#464646"/>
            <path id="Caminho_2146" data-name="Caminho 2146" d="M87.318,13.065v-2.01h.946l.118,1.064h0A2.627,2.627,0,0,1,90.747,10.7c.946,0,2.483.591,2.483,3.074v4.375h-1.3v-4.02c0-1.064-.473-2.128-1.655-2.128a1.668,1.668,0,0,0-1.655,1.3c0,.118-.118.473-.118.591v4.257H87.2V13.065Z" transform="translate(-51.845 -7.862)" fill="#464646"/>
            <path id="Caminho_2147" data-name="Caminho 2147" d="M96.82,8.6l-1.774,2.128H94.1L95.4,8.6Zm-2.6,10.051V11.556h1.3v7.095Z" transform="translate(-50.586 -8.245)" fill="#464646"/>
            <path id="Caminho_2148" data-name="Caminho 2148" d="M97.719,11.2l1.419,3.9c.236.709.473,1.3.591,1.774h0c.118-.591.473-1.064.591-1.774l1.419-3.9h1.419l-2.838,7.095h-1.3L96.3,11.2Z" transform="translate(-50.184 -7.771)" fill="#464646"/>
            <path id="Caminho_2149" data-name="Caminho 2149" d="M103.7,15.02a2.267,2.267,0,0,0,2.365,2.483,3.162,3.162,0,0,0,2.01-.473l.237.946a8.157,8.157,0,0,1-2.365.473,3.326,3.326,0,0,1-3.547-3.666c0-2.128,1.3-3.784,3.311-3.784a3.028,3.028,0,0,1,2.956,3.311V14.9H103.7Zm3.784-1.064c0-.828-.236-2.128-1.774-2.128-1.3,0-1.774,1.3-2.01,2.128Z" transform="translate(-49.071 -7.807)" fill="#464646"/>
            <path id="Caminho_2150" data-name="Caminho 2150" d="M109.1,8.3h1.3V18.706h-1.3Z" transform="translate(-47.849 -8.3)" fill="#464646"/>
            <path id="Caminho_2151" data-name="Caminho 2151" d="M114.7,13.065v-2.01h1.064l.118,1.064h0a2.627,2.627,0,0,1,2.365-1.419c.946,0,2.483.591,2.483,3.074v4.375h-1.3v-4.02c0-1.064-.473-2.128-1.655-2.128a1.668,1.668,0,0,0-1.655,1.3c0,.118-.118.473-.118.591v4.257h-1.3V13.3h0Z" transform="translate(-46.827 -7.862)" fill="#464646"/>
            <path id="Caminho_2152" data-name="Caminho 2152" d="M125.575,18.213l-.118-.828h0a2.514,2.514,0,0,1-2.128,1.064,1.985,1.985,0,0,1-2.128-2.128c0-1.655,1.537-2.72,4.257-2.72v-.118a1.462,1.462,0,0,0-1.655-1.655,2.172,2.172,0,0,0-1.774.591l-.236-.828A3.72,3.72,0,0,1,124.156,11c2.128,0,2.72,1.537,2.72,2.956v2.72a6.765,6.765,0,0,0,.118,1.655h-1.3v-.118Zm-.236-3.666c-1.419,0-2.956.236-2.956,1.537a1.241,1.241,0,0,0,1.3,1.3,1.651,1.651,0,0,0,1.655-1.064c0-.118.118-.236.118-.473v-1.3Z" transform="translate(-45.641 -7.807)" fill="#464646"/>
          </g>
        </g>
        <path id="Caminho_2153" data-name="Caminho 2153" d="M98.486,29.313a6.5,6.5,0,1,0,6.5,6.5A6.273,6.273,0,0,0,98.486,29.313Zm0,10.642a4.028,4.028,0,1,1,3.784-4.02A3.943,3.943,0,0,1,98.486,39.955ZM84.178,29.313a6.5,6.5,0,0,0,0,13.007,6.485,6.485,0,0,0,6.5-6.5A6.273,6.273,0,0,0,84.178,29.313Zm0,10.642a4.028,4.028,0,1,1,3.784-4.02A4.111,4.111,0,0,1,84.178,39.955ZM67.033,31.323v2.838h6.74a5.145,5.145,0,0,1-1.419,3.429,7.027,7.027,0,0,1-5.085,2.01,7.331,7.331,0,0,1,0-14.662,7.429,7.429,0,0,1,5.085,2.01l2.01-2.01A9.491,9.491,0,0,0,67.387,22.1a10.17,10.17,0,1,0,0,20.338A9.091,9.091,0,0,0,74.482,39.6a8.919,8.919,0,0,0,2.365-6.5,8.374,8.374,0,0,0-.118-1.774Zm70,2.128a6.079,6.079,0,0,0-11.825,2.365,6.5,6.5,0,0,0,11.943,3.547l-2.247-1.419a4,4,0,0,1-3.193,1.892,3.366,3.366,0,0,1-3.193-2.01l8.868-3.666Zm-8.987,2.128a3.63,3.63,0,0,1,3.429-3.9,2.421,2.421,0,0,1,2.365,1.3Zm-7.213,6.5h2.956V22.809h-2.956ZM116.223,30.85h0a4.975,4.975,0,0,0-3.666-1.419,6.518,6.518,0,0,0-6.267,6.5,6.438,6.438,0,0,0,6.267,6.5,4.439,4.439,0,0,0,3.429-1.419h.118v.946c0,2.6-1.3,3.9-3.429,3.9a3.592,3.592,0,0,1-3.311-2.247l-2.6,1.064a6.341,6.341,0,0,0,5.912,3.9c3.311,0,6.267-2.01,6.267-6.858V29.9h-2.72v.946h0Zm-3.429,9.1a3.775,3.775,0,0,1-3.666-4.02,3.848,3.848,0,0,1,3.666-4.02c2.01,0,3.429,1.774,3.429,4.02S114.8,39.955,112.793,39.955Zm37.838-17.146h-6.976V42.083h2.956V34.752h4.02a6.027,6.027,0,0,0,6.267-6.031C156.9,24.938,153.825,22.809,150.632,22.809Zm0,9.223h-4.02v-6.5h4.139a3.3,3.3,0,0,1,3.311,3.311A3.475,3.475,0,0,1,150.632,32.033Zm17.737-2.72a5.269,5.269,0,0,0-5.085,2.956l2.6,1.064a2.916,2.916,0,0,1,2.72-1.419,2.964,2.964,0,0,1,3.074,2.6v.118a7.407,7.407,0,0,0-2.956-.828c-2.838,0-5.676,1.419-5.676,4.257,0,2.6,2.247,4.257,4.848,4.257a4.056,4.056,0,0,0,3.666-1.892h.118v1.419h2.838V34.516C174.281,31.2,171.8,29.313,168.369,29.313Zm-.236,10.642c-.946,0-2.247-.591-2.247-1.655,0-1.419,1.655-2.01,3.074-2.01a4.9,4.9,0,0,1,2.72.709A3.907,3.907,0,0,1,168.132,39.955ZM184.45,29.786l-3.311,8.4h-.118l-3.429-8.4h-3.074L179.6,41.492,176.646,48H179.6l7.922-18.21Zm-25.9,12.3h2.956V22.809h-2.956Z" transform="translate(-57.1 -5.782)" fill="#464646"/>
      </g>
    </g>
  </g>
</svg>
