<svg id="logo-atleta-do-volei-original" xmlns="http://www.w3.org/2000/svg" xmlns:xlink="http://www.w3.org/1999/xlink" width="338" height="91.429" viewBox="0 0 338 91.429">
  <defs>
    <clipPath id="clip-path">
      <rect id="Retângulo_1" data-name="Retângulo 1" width="338" height="91.429" fill="none"/>
    </clipPath>
  </defs>
  <g id="Grupo_1" data-name="Grupo 1" transform="translate(0 0)" clip-path="url(#clip-path)">
    <path id="Caminho_1" data-name="Caminho 1" d="M75.821,42.082l-.63-3.359a.988.988,0,0,0-.97-.806H70.406a.988.988,0,0,0-.97.806l-.63,3.359a.988.988,0,0,1-.97.806h-4.25a.988.988,0,0,1-.954-1.24L68.046,21.2a3.1,3.1,0,0,1,2.993-2.3h3.625a1.878,1.878,0,0,1,1.814,1.4L82.1,41.649a.987.987,0,0,1-.954,1.239H76.791a.988.988,0,0,1-.97-.806M71.6,33.5h1.418a.987.987,0,0,0,.97-1.17l-.71-3.775a.987.987,0,0,0-1.94,0l-.708,3.775a.987.987,0,0,0,.97,1.17" transform="translate(37.449 11.306)" fill="#e4441b"/>
    <path id="Caminho_2" data-name="Caminho 2" d="M90.628,20.023l-.382,2.754a.986.986,0,0,1-.978.852H86.18a.987.987,0,0,0-.986.988V41.9a.987.987,0,0,1-.988.986H79.933a.986.986,0,0,1-.986-.986V24.616a.988.988,0,0,0-.988-.988H74.652a.986.986,0,0,1-.986-.986V19.887a.986.986,0,0,1,.986-.986h15a.987.987,0,0,1,.978,1.122" transform="translate(44.07 11.307)" fill="#e4441b"/>
    <path id="Caminho_3" data-name="Caminho 3" d="M91.51,19.888V37.034a.988.988,0,0,0,.988.988h6.062a.986.986,0,0,1,.978,1.119l-.388,2.893a.989.989,0,0,1-.978.855H86.25a.988.988,0,0,1-.988-.988V19.888a.988.988,0,0,1,.988-.988h4.272a.988.988,0,0,1,.988.988" transform="translate(51.007 11.306)" fill="#e4441b"/>
    <path id="Caminho_4" data-name="Caminho 4" d="M109.2,20.9l-.235,1.581a.987.987,0,0,1-.977.842h-5.34a.988.988,0,0,0-.988.988v3.272a.988.988,0,0,0,.988.988h4.341a.987.987,0,0,1,.988.986v2.34a.987.987,0,0,1-.988.988h-4.341a.988.988,0,0,0-.988.988v3.582a.988.988,0,0,0,.988.988h5.688a.986.986,0,0,1,.986.986V41.9a.987.987,0,0,1-.986.988H96.4a.987.987,0,0,1-.986-.988V19.889A.987.987,0,0,1,96.4,18.9h11.079A1.739,1.739,0,0,1,109.2,20.9" transform="translate(57.079 11.307)" fill="#e4441b"/>
    <path id="Caminho_5" data-name="Caminho 5" d="M121.7,20.023l-.382,2.754a.986.986,0,0,1-.978.852h-3.088a.988.988,0,0,0-.988.988V41.9a.986.986,0,0,1-.986.986h-4.274a.987.987,0,0,1-.988-.986V24.616a.987.987,0,0,0-.986-.988h-3.307a.987.987,0,0,1-.988-.986V19.887a.987.987,0,0,1,.988-.986h15a.987.987,0,0,1,.978,1.122" transform="translate(62.659 11.307)" fill="#e4441b"/>
    <path id="Caminho_6" data-name="Caminho 6" d="M127.324,42.082l-.63-3.359a.988.988,0,0,0-.97-.806h-3.815a.988.988,0,0,0-.97.806l-.63,3.359a.988.988,0,0,1-.97.806h-4.25a.988.988,0,0,1-.954-1.24l5.829-22.013a.985.985,0,0,1,.954-.735h5.934a.986.986,0,0,1,.954.737l5.8,22.013a.987.987,0,0,1-.954,1.239h-4.355a.988.988,0,0,1-.97-.806M123.108,33.5h1.418a.987.987,0,0,0,.97-1.17l-.708-3.775a.987.987,0,0,0-1.94,0l-.71,3.775a.987.987,0,0,0,.97,1.17" transform="translate(68.26 11.306)" fill="#e4441b"/>
    <path id="Caminho_7" data-name="Caminho 7" d="M144.1,19.85a7.994,7.994,0,0,1,4.037,3.572,14.575,14.575,0,0,1,1.553,7.385q0,6.7-3,9.388a11.647,11.647,0,0,1-8.076,2.691h-6.192a.987.987,0,0,1-.988-.986V19.887a.987.987,0,0,1,.988-.986h5.811a16.431,16.431,0,0,1,5.869.949m-6.42,4.489V37.449a.987.987,0,0,0,.988.986h.323a3.947,3.947,0,0,0,2.4-.673,4.276,4.276,0,0,0,1.4-2.346,17.357,17.357,0,0,0,.483-4.608,16.413,16.413,0,0,0-.5-4.573,4.054,4.054,0,0,0-1.414-2.262,4.066,4.066,0,0,0-2.33-.622h-.358a.988.988,0,0,0-.988.988" transform="translate(78.627 11.307)" fill="#e4441b"/>
    <path id="Caminho_8" data-name="Caminho 8" d="M161.408,21.723q2.6,3.21,2.605,9.386,0,6.111-2.623,9.37a10.167,10.167,0,0,1-14.892.035q-2.608-3.227-2.607-9.406,0-6.073,2.607-9.335a8.969,8.969,0,0,1,7.437-3.262,9.074,9.074,0,0,1,7.473,3.211m-10.182,3.123a16.424,16.424,0,0,0-.845,6.263,16.54,16.54,0,0,0,.845,6.3,3.012,3.012,0,0,0,4.8,1.071,5,5,0,0,0,1.14-2.554,25.384,25.384,0,0,0,.361-4.815,16.424,16.424,0,0,0-.845-6.263,2.937,2.937,0,0,0-5.453,0" transform="translate(86.081 11.074)" fill="#e4441b"/>
    <path id="Caminho_9" data-name="Caminho 9" d="M180,20.109l-5.068,22.013a.985.985,0,0,1-.962.766h-6.481a.987.987,0,0,1-.959-.751l-5.384-22.014a.986.986,0,0,1,.959-1.221h4.339a.988.988,0,0,1,.972.809l2.391,13.024a.987.987,0,0,0,1.943-.016l2.177-12.994a.988.988,0,0,1,.975-.823h4.136A.987.987,0,0,1,180,20.109" transform="translate(96.388 11.307)" fill="#e4441b"/>
    <path id="Caminho_10" data-name="Caminho 10" d="M190.669,24.875q2.6,3.21,2.605,9.386,0,6.111-2.623,9.37a10.167,10.167,0,0,1-14.892.035q-2.608-3.227-2.607-9.406,0-6.072,2.607-9.335a8.969,8.969,0,0,1,7.437-3.262,9.074,9.074,0,0,1,7.473,3.211m-12.123-5.167-.793-.861a1.318,1.318,0,0,1,.016-1.8l3.243-3.391a1.315,1.315,0,0,1,.953-.408h2.463a1.318,1.318,0,0,1,.953.408l3.243,3.391a1.32,1.32,0,0,1,.016,1.8l-.6.655a1.012,1.012,0,0,1-1.317.15l-2.779-1.9a1.315,1.315,0,0,0-1.486,0l-3.009,2.055a.691.691,0,0,1-.9-.1m1.94,8.29a16.425,16.425,0,0,0-.845,6.263,16.541,16.541,0,0,0,.845,6.3,3.012,3.012,0,0,0,4.8,1.071,5,5,0,0,0,1.14-2.554,25.383,25.383,0,0,0,.361-4.815A16.425,16.425,0,0,0,185.939,28a2.937,2.937,0,0,0-5.453,0" transform="translate(103.586 7.922)" fill="#e4441b"/>
    <path id="Caminho_11" data-name="Caminho 11" d="M193.48,19.888V37.034a.988.988,0,0,0,.988.988h6.062a.986.986,0,0,1,.978,1.119l-.388,2.893a.989.989,0,0,1-.978.855H188.22a.988.988,0,0,1-.988-.988V19.888a.988.988,0,0,1,.988-.988h4.272a.987.987,0,0,1,.988.988" transform="translate(112.009 11.306)" fill="#e4441b"/>
    <path id="Caminho_12" data-name="Caminho 12" d="M211.215,20.568l-.283,1.908a.987.987,0,0,1-.977.842h-5.341a.986.986,0,0,0-.986.986v3.273a.986.986,0,0,0,.986.986h4.342a.988.988,0,0,1,.988.988v2.34a.988.988,0,0,1-.988.988h-4.342a.986.986,0,0,0-.986.986v3.583a.986.986,0,0,0,.986.986H210.3a.988.988,0,0,1,.988.988V41.9a.987.987,0,0,1-.988.986H198.369a.987.987,0,0,1-.988-.986V19.887a.987.987,0,0,1,.988-.986h11.408a1.453,1.453,0,0,1,1.438,1.667" transform="translate(118.081 11.307)" fill="#e4441b"/>
    <path id="Caminho_13" data-name="Caminho 13" d="M213.82,19.888V41.9a.987.987,0,0,1-.988.988h-4.272a.988.988,0,0,1-.988-.988V19.888a.988.988,0,0,1,.988-.988h4.272a.987.987,0,0,1,.988.988" transform="translate(124.178 11.306)" fill="#e4441b"/>
    <path id="Caminho_14" data-name="Caminho 14" d="M70.137,48.842a.246.246,0,0,1-.024.112.175.175,0,0,1-.1.078.921.921,0,0,1-.221.048,3.453,3.453,0,0,1-.38.016,2.734,2.734,0,0,1-.336-.016.755.755,0,0,1-.209-.051.3.3,0,0,1-.123-.1.609.609,0,0,1-.075-.158l-.94-2.412c-.112-.273-.225-.526-.345-.754a2.413,2.413,0,0,0-.422-.593,1.766,1.766,0,0,0-.577-.388,2.1,2.1,0,0,0-.8-.137h-.909v4.355a.18.18,0,0,1-.035.112.241.241,0,0,1-.11.075,1.186,1.186,0,0,1-.206.046,2.074,2.074,0,0,1-.328.021,2.1,2.1,0,0,1-.329-.021,1.27,1.27,0,0,1-.209-.046.211.211,0,0,1-.11-.075.2.2,0,0,1-.032-.112V39.371a.506.506,0,0,1,.163-.43.559.559,0,0,1,.344-.123h2.174c.259,0,.473.006.644.021s.326.027.463.043a3.888,3.888,0,0,1,1.047.324,2.474,2.474,0,0,1,.764.561,2.272,2.272,0,0,1,.462.778,2.918,2.918,0,0,1,.153.969,2.887,2.887,0,0,1-.137.921,2.224,2.224,0,0,1-.4.719,2.593,2.593,0,0,1-.625.542,3.99,3.99,0,0,1-.813.388,1.936,1.936,0,0,1,.459.28,2.474,2.474,0,0,1,.384.408,3.882,3.882,0,0,1,.336.545q.158.309.316.7l.916,2.252c.075.19.121.323.142.4a.671.671,0,0,1,.032.177M68.09,41.656a1.832,1.832,0,0,0-.269-1.016,1.519,1.519,0,0,0-.9-.6,2.622,2.622,0,0,0-.446-.08c-.166-.014-.384-.022-.654-.022H64.674v3.446H66a2.967,2.967,0,0,0,.929-.129,1.835,1.835,0,0,0,.652-.364,1.407,1.407,0,0,0,.384-.55,1.889,1.889,0,0,0,.123-.687" transform="translate(37.877 23.222)" fill="#183f8e"/>
    <path id="Caminho_15" data-name="Caminho 15" d="M75.014,48.487a1.648,1.648,0,0,1-.016.249.527.527,0,0,1-.056.177.251.251,0,0,1-.091.1.2.2,0,0,1-.113.032h-4.91a.55.55,0,0,1-.344-.123.506.506,0,0,1-.163-.43V39.371a.506.506,0,0,1,.163-.43.559.559,0,0,1,.344-.123h4.854a.223.223,0,0,1,.115.032.218.218,0,0,1,.083.1.807.807,0,0,1,.051.179,1.512,1.512,0,0,1,.019.264,1.426,1.426,0,0,1-.019.249.714.714,0,0,1-.051.174.225.225,0,0,1-.083.1.223.223,0,0,1-.115.032h-4v3.209h3.431a.2.2,0,0,1,.115.035.309.309,0,0,1,.086.1.48.48,0,0,1,.051.174,1.762,1.762,0,0,1,.016.261,1.554,1.554,0,0,1-.016.245.464.464,0,0,1-.051.166.227.227,0,0,1-.086.091.235.235,0,0,1-.115.027H70.681v3.662h4.056a.2.2,0,0,1,.113.032.257.257,0,0,1,.091.1.486.486,0,0,1,.056.174,1.774,1.774,0,0,1,.016.265" transform="translate(41.47 23.222)" fill="#183f8e"/>
    <path id="Caminho_16" data-name="Caminho 16" d="M82.642,43.782A7.189,7.189,0,0,1,82.3,46.1a4.218,4.218,0,0,1-.993,1.645,4.1,4.1,0,0,1-1.6.977,7.027,7.027,0,0,1-2.262.324H75.282a.559.559,0,0,1-.344-.123.506.506,0,0,1-.163-.43V39.371a.506.506,0,0,1,.163-.43.549.549,0,0,1,.344-.123H77.6a6.442,6.442,0,0,1,2.246.344,4.114,4.114,0,0,1,1.538.988,4.24,4.24,0,0,1,.941,1.561,6.249,6.249,0,0,1,.32,2.071m-1.43.056A5.566,5.566,0,0,0,81,42.293a3.321,3.321,0,0,0-.644-1.237,2.976,2.976,0,0,0-1.111-.815,4.369,4.369,0,0,0-1.731-.292H76.135V47.91h1.4a4.828,4.828,0,0,0,1.653-.246,2.724,2.724,0,0,0,1.122-.751,3.263,3.263,0,0,0,.676-1.267,6.434,6.434,0,0,0,.225-1.808" transform="translate(44.733 23.222)" fill="#183f8e"/>
    <path id="Caminho_17" data-name="Caminho 17" d="M87.207,48.487a1.648,1.648,0,0,1-.016.249.527.527,0,0,1-.056.177.251.251,0,0,1-.091.1.2.2,0,0,1-.113.032h-4.91a.55.55,0,0,1-.344-.123.506.506,0,0,1-.163-.43V39.371a.506.506,0,0,1,.163-.43.559.559,0,0,1,.344-.123h4.854a.223.223,0,0,1,.115.032.218.218,0,0,1,.083.1.807.807,0,0,1,.051.179,1.511,1.511,0,0,1,.019.264,1.425,1.425,0,0,1-.019.249.714.714,0,0,1-.051.174.225.225,0,0,1-.083.1.223.223,0,0,1-.115.032h-4v3.209h3.431a.2.2,0,0,1,.115.035.309.309,0,0,1,.086.1.48.48,0,0,1,.051.174,1.762,1.762,0,0,1,.016.261,1.554,1.554,0,0,1-.016.245.464.464,0,0,1-.051.166.227.227,0,0,1-.086.091.235.235,0,0,1-.115.027H82.874v3.662H86.93a.2.2,0,0,1,.113.032.257.257,0,0,1,.091.1.486.486,0,0,1,.056.174,1.774,1.774,0,0,1,.016.265" transform="translate(48.765 23.222)" fill="#183f8e"/>
    <path id="Caminho_18" data-name="Caminho 18" d="M95.558,46.235a2.952,2.952,0,0,1-.265,1.28,2.763,2.763,0,0,1-.735.954,3.179,3.179,0,0,1-1.106.588,4.635,4.635,0,0,1-1.373.2,4.938,4.938,0,0,1-.953-.088,5.269,5.269,0,0,1-.782-.213,3.7,3.7,0,0,1-.579-.262,1.526,1.526,0,0,1-.323-.229.582.582,0,0,1-.134-.241,1.365,1.365,0,0,1-.045-.392,2.341,2.341,0,0,1,.016-.288.752.752,0,0,1,.048-.187.208.208,0,0,1,.078-.1.212.212,0,0,1,.112-.029.645.645,0,0,1,.312.134,4.911,4.911,0,0,0,.518.292,5.141,5.141,0,0,0,.762.3,3.489,3.489,0,0,0,1.032.137,2.6,2.6,0,0,0,.81-.118,1.9,1.9,0,0,0,.633-.336,1.454,1.454,0,0,0,.406-.534,1.72,1.72,0,0,0,.142-.719,1.353,1.353,0,0,0-.2-.743,1.975,1.975,0,0,0-.523-.542,4.62,4.62,0,0,0-.738-.427c-.277-.129-.561-.261-.85-.395a9.275,9.275,0,0,1-.845-.448,3.522,3.522,0,0,1-.735-.577,2.682,2.682,0,0,1-.526-.778,2.591,2.591,0,0,1-.2-1.071,2.66,2.66,0,0,1,.233-1.143,2.344,2.344,0,0,1,.647-.842,2.879,2.879,0,0,1,.988-.518,4.181,4.181,0,0,1,1.239-.177,4,4,0,0,1,.684.059,4.354,4.354,0,0,1,.647.158,3.6,3.6,0,0,1,.542.221,1.33,1.33,0,0,1,.312.2.565.565,0,0,1,.1.118.459.459,0,0,1,.04.11,1.191,1.191,0,0,1,.024.163c0,.062.008.145.008.245a2.357,2.357,0,0,1-.013.253,1,1,0,0,1-.035.187.232.232,0,0,1-.067.11.151.151,0,0,1-.1.035.635.635,0,0,1-.272-.11q-.187-.11-.455-.249a3.992,3.992,0,0,0-.636-.253,2.768,2.768,0,0,0-.826-.115,2.174,2.174,0,0,0-.743.115,1.515,1.515,0,0,0-.521.3,1.184,1.184,0,0,0-.308.451,1.5,1.5,0,0,0-.1.553,1.32,1.32,0,0,0,.2.735,2,2,0,0,0,.526.547,4.8,4.8,0,0,0,.746.435c.28.131.564.265.855.4s.574.281.853.443a3.517,3.517,0,0,1,.746.569,2.591,2.591,0,0,1,.531.774,2.558,2.558,0,0,1,.2,1.056" transform="translate(53.401 23.166)" fill="#183f8e"/>
    <path id="Caminho_19" data-name="Caminho 19" d="M103.711,43.872a7.946,7.946,0,0,1-.292,2.238,4.7,4.7,0,0,1-.873,1.7,3.807,3.807,0,0,1-1.459,1.074,5.16,5.16,0,0,1-2.047.376,5.243,5.243,0,0,1-2-.344,3.493,3.493,0,0,1-1.392-1,4.264,4.264,0,0,1-.818-1.627,8.443,8.443,0,0,1-.269-2.238,7.741,7.741,0,0,1,.292-2.2,4.582,4.582,0,0,1,.877-1.68A3.9,3.9,0,0,1,97.2,39.1a5.815,5.815,0,0,1,4.016-.035,3.559,3.559,0,0,1,1.4.993,4.206,4.206,0,0,1,.831,1.613,8.133,8.133,0,0,1,.272,2.2m-1.438.094a8.043,8.043,0,0,0-.153-1.617,3.752,3.752,0,0,0-.515-1.3,2.477,2.477,0,0,0-.959-.858,3.237,3.237,0,0,0-1.485-.307,3.038,3.038,0,0,0-1.483.331,2.78,2.78,0,0,0-.975.885,3.691,3.691,0,0,0-.539,1.293A7.313,7.313,0,0,0,96,43.95a8.654,8.654,0,0,0,.15,1.661,3.738,3.738,0,0,0,.505,1.309,2.433,2.433,0,0,0,.953.853,3.267,3.267,0,0,0,1.5.3,3.11,3.11,0,0,0,1.5-.331,2.712,2.712,0,0,0,.978-.9,3.805,3.805,0,0,0,.529-1.307,7.566,7.566,0,0,0,.158-1.574" transform="translate(56.572 23.166)" fill="#183f8e"/>
    <path id="Caminho_20" data-name="Caminho 20" d="M109.193,47.649c0,.085,0,.158-.008.222a.881.881,0,0,1-.027.165.666.666,0,0,1-.051.128.765.765,0,0,1-.112.134,2.343,2.343,0,0,1-.331.241,4.039,4.039,0,0,1-.63.315,5.149,5.149,0,0,1-.861.262,5.022,5.022,0,0,1-1.063.105,4.683,4.683,0,0,1-1.8-.331,3.628,3.628,0,0,1-1.367-.981,4.437,4.437,0,0,1-.869-1.6,7.165,7.165,0,0,1-.305-2.194,7.242,7.242,0,0,1,.328-2.27,4.929,4.929,0,0,1,.922-1.688,3.927,3.927,0,0,1,1.419-1.056,4.507,4.507,0,0,1,1.83-.363,4.386,4.386,0,0,1,.861.083,5.569,5.569,0,0,1,.775.209,3.56,3.56,0,0,1,.631.292,2.016,2.016,0,0,1,.384.273.863.863,0,0,1,.139.161.547.547,0,0,1,.051.131,1.332,1.332,0,0,1,.032.177,2.17,2.17,0,0,1,.011.245,1.859,1.859,0,0,1-.016.27.724.724,0,0,1-.048.185.284.284,0,0,1-.075.11.163.163,0,0,1-.107.035.6.6,0,0,1-.31-.153,5.275,5.275,0,0,0-.513-.34,4.294,4.294,0,0,0-.762-.34,3.345,3.345,0,0,0-1.077-.153A2.8,2.8,0,0,0,105,40.2a2.631,2.631,0,0,0-.959.8,3.95,3.95,0,0,0-.615,1.293,7.077,7.077,0,0,0-.008,3.462,3.573,3.573,0,0,0,.6,1.25,2.524,2.524,0,0,0,.965.759,3.138,3.138,0,0,0,1.3.256,3.47,3.47,0,0,0,1.069-.149,4.159,4.159,0,0,0,.778-.337,6.082,6.082,0,0,0,.529-.336.626.626,0,0,1,.326-.15.176.176,0,0,1,.094.024.163.163,0,0,1,.064.091.735.735,0,0,1,.035.185c.008.078.013.179.013.3" transform="translate(60.882 23.175)" fill="#183f8e"/>
    <path id="Caminho_21" data-name="Caminho 21" d="M109.408,48.86a.2.2,0,0,1-.032.11.2.2,0,0,1-.11.075,1.11,1.11,0,0,1-.209.048,2.781,2.781,0,0,1-.652,0,1.112,1.112,0,0,1-.214-.048.2.2,0,0,1-.11-.075.2.2,0,0,1-.032-.11v-9.82a.18.18,0,0,1,.035-.109.244.244,0,0,1,.12-.077,1.542,1.542,0,0,1,.213-.048,2.205,2.205,0,0,1,.313-.019,2.314,2.314,0,0,1,.328.019,1.432,1.432,0,0,1,.209.048.212.212,0,0,1,.11.077.189.189,0,0,1,.032.109Z" transform="translate(64.638 23.204)" fill="#183f8e"/>
    <path id="Caminho_22" data-name="Caminho 22" d="M119.171,48.585a.958.958,0,0,1,.067.28.2.2,0,0,1-.059.163.386.386,0,0,1-.209.07,3.641,3.641,0,0,1-.392.016c-.163,0-.294,0-.392-.011a.913.913,0,0,1-.221-.04.233.233,0,0,1-.11-.075.622.622,0,0,1-.067-.118l-.879-2.492h-4.253l-.837,2.46a.4.4,0,0,1-.064.121.3.3,0,0,1-.113.088.724.724,0,0,1-.214.051,3.14,3.14,0,0,1-.36.016,2.984,2.984,0,0,1-.376-.019.392.392,0,0,1-.206-.075.2.2,0,0,1-.054-.163.927.927,0,0,1,.067-.281l3.431-9.5a.406.406,0,0,1,.081-.142.347.347,0,0,1,.152-.088,1.156,1.156,0,0,1,.253-.043c.1-.008.233-.013.392-.013s.308,0,.419.013a1.271,1.271,0,0,1,.268.043.345.345,0,0,1,.158.091.416.416,0,0,1,.086.147Zm-4.4-8.389h-.008L113,45.3h3.558Z" transform="translate(66.064 23.204)" fill="#183f8e"/>
    <path id="Caminho_23" data-name="Caminho 23" d="M122.781,48.473a1.773,1.773,0,0,1-.016.265.6.6,0,0,1-.051.181.278.278,0,0,1-.086.112.21.21,0,0,1-.123.035h-4.523a.566.566,0,0,1-.344-.123.51.51,0,0,1-.161-.43V39.042a.188.188,0,0,1,.032-.112.211.211,0,0,1,.11-.075,1.244,1.244,0,0,1,.213-.046,2.58,2.58,0,0,1,.654,0,1.309,1.309,0,0,1,.209.046.218.218,0,0,1,.11.075.2.2,0,0,1,.032.112v8.846H122.5a.21.21,0,0,1,.123.035.3.3,0,0,1,.086.1.521.521,0,0,1,.051.177,1.835,1.835,0,0,1,.016.269" transform="translate(70.279 23.204)" fill="#183f8e"/>
    <path id="Caminho_24" data-name="Caminho 24" d="M130.731,48.487a1.645,1.645,0,0,1-.016.249.527.527,0,0,1-.056.177.251.251,0,0,1-.091.1.2.2,0,0,1-.113.032h-4.91a.549.549,0,0,1-.344-.123.506.506,0,0,1-.163-.43V39.371a.506.506,0,0,1,.163-.43.559.559,0,0,1,.344-.123H130.4a.223.223,0,0,1,.115.032.218.218,0,0,1,.083.1.81.81,0,0,1,.051.179,1.515,1.515,0,0,1,.019.264,1.428,1.428,0,0,1-.019.249.716.716,0,0,1-.051.174.225.225,0,0,1-.083.1.223.223,0,0,1-.115.032h-4v3.209h3.431a.2.2,0,0,1,.115.035.309.309,0,0,1,.086.1.48.48,0,0,1,.051.174,1.761,1.761,0,0,1,.016.261,1.552,1.552,0,0,1-.016.245.463.463,0,0,1-.051.166.227.227,0,0,1-.086.091.235.235,0,0,1-.115.027H126.4v3.662h4.056a.2.2,0,0,1,.113.032.257.257,0,0,1,.091.1.486.486,0,0,1,.056.174,1.771,1.771,0,0,1,.016.265" transform="translate(74.802 23.222)" fill="#183f8e"/>
    <path id="Caminho_25" data-name="Caminho 25" d="M136.186,46.235a2.952,2.952,0,0,1-.265,1.28,2.763,2.763,0,0,1-.735.954,3.179,3.179,0,0,1-1.106.588,4.631,4.631,0,0,1-1.371.2,4.914,4.914,0,0,1-.953-.088,5.293,5.293,0,0,1-.783-.213,3.706,3.706,0,0,1-.579-.262,1.572,1.572,0,0,1-.323-.229.582.582,0,0,1-.134-.241,1.424,1.424,0,0,1-.045-.392,2.031,2.031,0,0,1,.018-.288.692.692,0,0,1,.046-.187.194.194,0,0,1,.19-.126.645.645,0,0,1,.312.134,4.949,4.949,0,0,0,1.282.59,3.47,3.47,0,0,0,1.031.137,2.6,2.6,0,0,0,.81-.118,1.9,1.9,0,0,0,.633-.336,1.475,1.475,0,0,0,.408-.534,1.745,1.745,0,0,0,.142-.719,1.353,1.353,0,0,0-.2-.743,1.969,1.969,0,0,0-.521-.542,4.71,4.71,0,0,0-.74-.427c-.276-.129-.561-.261-.85-.395a9.269,9.269,0,0,1-.845-.448,3.564,3.564,0,0,1-.735-.577,2.682,2.682,0,0,1-.526-.778,2.592,2.592,0,0,1-.2-1.071,2.66,2.66,0,0,1,.233-1.143,2.344,2.344,0,0,1,.647-.842,2.887,2.887,0,0,1,.989-.518,4.163,4.163,0,0,1,1.237-.177,3.968,3.968,0,0,1,.684.059,4.355,4.355,0,0,1,.647.158,3.6,3.6,0,0,1,.542.221,1.389,1.389,0,0,1,.313.2.6.6,0,0,1,.1.118.4.4,0,0,1,.04.11.991.991,0,0,1,.024.163c0,.062.008.145.008.245s0,.179-.011.253a.992.992,0,0,1-.037.187.233.233,0,0,1-.067.11.151.151,0,0,1-.1.035.635.635,0,0,1-.272-.11q-.187-.11-.455-.249a3.932,3.932,0,0,0-.636-.253,2.76,2.76,0,0,0-.826-.115,2.174,2.174,0,0,0-.743.115,1.53,1.53,0,0,0-.521.3,1.2,1.2,0,0,0-.308.451,1.5,1.5,0,0,0-.1.553,1.332,1.332,0,0,0,.2.735,2,2,0,0,0,.526.547,4.8,4.8,0,0,0,.746.435l.855.4q.434.2.853.443a3.477,3.477,0,0,1,.746.569,2.59,2.59,0,0,1,.531.774,2.558,2.558,0,0,1,.2,1.056" transform="translate(77.706 23.166)" fill="#183f8e"/>
    <path id="Caminho_26" data-name="Caminho 26" d="M141.838,41.815a3.593,3.593,0,0,1-.253,1.382,2.9,2.9,0,0,1-.724,1.052,3.232,3.232,0,0,1-1.152.673,5.006,5.006,0,0,1-1.633.237h-1.162v3.684a.173.173,0,0,1-.037.11.222.222,0,0,1-.11.075.988.988,0,0,1-.206.048,2.261,2.261,0,0,1-.326.021,2.293,2.293,0,0,1-.329-.021,1.08,1.08,0,0,1-.209-.048.2.2,0,0,1-.11-.075.18.18,0,0,1-.032-.11V39.4a.544.544,0,0,1,.166-.451.572.572,0,0,1,.371-.134h2.19c.222,0,.435.01.638.027a6.408,6.408,0,0,1,.719.118,2.951,2.951,0,0,1,.845.34,2.707,2.707,0,0,1,.732.612,2.673,2.673,0,0,1,.462.842,3.262,3.262,0,0,1,.161,1.056m-1.43.11a2.131,2.131,0,0,0-.233-1.044,1.627,1.627,0,0,0-.577-.625,1.93,1.93,0,0,0-.711-.261,4.845,4.845,0,0,0-.716-.056h-1.256v4.1h1.226a2.847,2.847,0,0,0,1.023-.158,1.933,1.933,0,0,0,.684-.44,1.838,1.838,0,0,0,.419-.671,2.491,2.491,0,0,0,.142-.85" transform="translate(81.093 23.222)" fill="#183f8e"/>
    <path id="Caminho_27" data-name="Caminho 27" d="M150.081,43.872a8,8,0,0,1-.292,2.238,4.7,4.7,0,0,1-.874,1.7,3.807,3.807,0,0,1-1.459,1.074,5.161,5.161,0,0,1-2.047.376,5.249,5.249,0,0,1-2-.344,3.515,3.515,0,0,1-1.392-1,4.239,4.239,0,0,1-.817-1.627,8.374,8.374,0,0,1-.27-2.238,7.743,7.743,0,0,1,.292-2.2,4.582,4.582,0,0,1,.877-1.68,3.9,3.9,0,0,1,1.462-1.068,5.819,5.819,0,0,1,4.018-.035,3.582,3.582,0,0,1,1.4.993,4.226,4.226,0,0,1,.829,1.613,8.066,8.066,0,0,1,.273,2.2m-1.44.094a8.044,8.044,0,0,0-.153-1.617,3.72,3.72,0,0,0-.513-1.3,2.482,2.482,0,0,0-.961-.858,3.235,3.235,0,0,0-1.483-.307,3.04,3.04,0,0,0-1.485.331,2.794,2.794,0,0,0-.975.885,3.659,3.659,0,0,0-.537,1.293,7.212,7.212,0,0,0-.161,1.553,8.66,8.66,0,0,0,.149,1.661,3.738,3.738,0,0,0,.505,1.309,2.433,2.433,0,0,0,.953.853,3.276,3.276,0,0,0,1.5.3,3.11,3.11,0,0,0,1.5-.331,2.7,2.7,0,0,0,.978-.9,3.773,3.773,0,0,0,.529-1.307,7.563,7.563,0,0,0,.158-1.574" transform="translate(84.311 23.166)" fill="#183f8e"/>
    <path id="Caminho_28" data-name="Caminho 28" d="M155.331,48.842a.245.245,0,0,1-.024.112.18.18,0,0,1-.1.078.921.921,0,0,1-.221.048,3.453,3.453,0,0,1-.38.016,2.733,2.733,0,0,1-.336-.016.756.756,0,0,1-.209-.051.3.3,0,0,1-.123-.1.608.608,0,0,1-.075-.158l-.941-2.412c-.11-.273-.224-.526-.344-.754a2.376,2.376,0,0,0-.424-.593,1.742,1.742,0,0,0-.575-.388,2.1,2.1,0,0,0-.8-.137h-.909v4.355a.18.18,0,0,1-.035.112.241.241,0,0,1-.11.075,1.187,1.187,0,0,1-.206.046,2.594,2.594,0,0,1-.655,0,1.257,1.257,0,0,1-.211-.046.211.211,0,0,1-.11-.075.2.2,0,0,1-.032-.112V39.371a.506.506,0,0,1,.163-.43.559.559,0,0,1,.344-.123h2.174c.259,0,.473.006.644.021s.326.027.464.043a3.888,3.888,0,0,1,1.047.324,2.447,2.447,0,0,1,.762.561,2.251,2.251,0,0,1,.464.778,2.918,2.918,0,0,1,.153.969,2.887,2.887,0,0,1-.137.921,2.225,2.225,0,0,1-.4.719,2.592,2.592,0,0,1-.625.542,3.991,3.991,0,0,1-.813.388,1.936,1.936,0,0,1,.459.28,2.474,2.474,0,0,1,.384.408,3.881,3.881,0,0,1,.336.545q.158.309.316.7l.916,2.252c.075.19.121.323.144.4a.726.726,0,0,1,.03.177m-2.047-7.186a1.831,1.831,0,0,0-.269-1.016,1.519,1.519,0,0,0-.9-.6,2.612,2.612,0,0,0-.448-.08c-.165-.014-.384-.022-.652-.022h-1.146v3.446H151.2a2.967,2.967,0,0,0,.929-.129,1.871,1.871,0,0,0,.654-.364,1.441,1.441,0,0,0,.384-.55,1.889,1.889,0,0,0,.121-.687" transform="translate(88.843 23.222)" fill="#183f8e"/>
    <path id="Caminho_29" data-name="Caminho 29" d="M161.292,39.4a1.773,1.773,0,0,1-.016.261.521.521,0,0,1-.051.177.243.243,0,0,1-.086.1.209.209,0,0,1-.115.032h-2.878v8.87a.19.19,0,0,1-.03.11.207.207,0,0,1-.112.075,1.08,1.08,0,0,1-.209.048,2.285,2.285,0,0,1-.328.021,2.32,2.32,0,0,1-.324-.021,1.064,1.064,0,0,1-.213-.048.2.2,0,0,1-.112-.075.19.19,0,0,1-.03-.11v-8.87h-2.878a.205.205,0,0,1-.115-.032.227.227,0,0,1-.083-.1.721.721,0,0,1-.051-.177,1.548,1.548,0,0,1-.019-.261,1.623,1.623,0,0,1,.019-.265.821.821,0,0,1,.051-.185.228.228,0,0,1,.083-.1.219.219,0,0,1,.115-.032h7.115a.223.223,0,0,1,.115.032.243.243,0,0,1,.086.1.584.584,0,0,1,.051.185,1.858,1.858,0,0,1,.016.265" transform="translate(91.913 23.222)" fill="#183f8e"/>
    <path id="Caminho_30" data-name="Caminho 30" d="M161.22,48.86a.2.2,0,0,1-.032.11.2.2,0,0,1-.11.075,1.11,1.11,0,0,1-.209.048,2.781,2.781,0,0,1-.652,0,1.112,1.112,0,0,1-.214-.048.2.2,0,0,1-.11-.075.194.194,0,0,1-.032-.11v-9.82a.18.18,0,0,1,.035-.109.244.244,0,0,1,.12-.077,1.543,1.543,0,0,1,.213-.048,2.206,2.206,0,0,1,.313-.019,2.315,2.315,0,0,1,.328.019,1.431,1.431,0,0,1,.209.048.212.212,0,0,1,.11.077.189.189,0,0,1,.032.109Z" transform="translate(95.634 23.204)" fill="#183f8e"/>
    <path id="Caminho_31" data-name="Caminho 31" d="M167.461,48.829a.336.336,0,0,1-.241.229,1.146,1.146,0,0,1-.253.045c-.1.008-.23.011-.384.011-.115,0-.217,0-.3,0a1.7,1.7,0,0,1-.227-.021c-.062-.011-.117-.022-.161-.035a.425.425,0,0,1-.115-.051.253.253,0,0,1-.073-.075.556.556,0,0,1-.053-.107l-3.343-9.5a.919.919,0,0,1-.067-.28.182.182,0,0,1,.067-.163.443.443,0,0,1,.229-.07c.105-.011.248-.016.427-.016.149,0,.265,0,.353.011a.681.681,0,0,1,.2.043.251.251,0,0,1,.107.083.9.9,0,0,1,.067.131l2.933,8.61h.008l2.853-8.594a.643.643,0,0,1,.056-.142.209.209,0,0,1,.11-.088.823.823,0,0,1,.222-.043c.094-.008.221-.011.379-.011a3.087,3.087,0,0,1,.388.019.327.327,0,0,1,.193.075.2.2,0,0,1,.04.161,1.441,1.441,0,0,1-.075.281Z" transform="translate(97.057 23.205)" fill="#183f8e"/>
    <path id="Caminho_32" data-name="Caminho 32" d="M176.763,48.585a1.012,1.012,0,0,1,.067.28.192.192,0,0,1-.059.163.386.386,0,0,1-.209.07,3.62,3.62,0,0,1-.392.016c-.163,0-.294,0-.39-.011a.913.913,0,0,1-.222-.04.232.232,0,0,1-.11-.075.623.623,0,0,1-.067-.118l-.879-2.492h-4.253l-.837,2.46a.4.4,0,0,1-.064.121.3.3,0,0,1-.113.088.724.724,0,0,1-.214.051,3.139,3.139,0,0,1-.36.016,2.984,2.984,0,0,1-.376-.019.392.392,0,0,1-.206-.075.2.2,0,0,1-.054-.163.926.926,0,0,1,.067-.281l3.431-9.5a.385.385,0,0,1,.083-.142.332.332,0,0,1,.15-.088,1.156,1.156,0,0,1,.253-.043c.1-.008.233-.013.39-.013s.31,0,.42.013a1.272,1.272,0,0,1,.269.043.345.345,0,0,1,.158.091.417.417,0,0,1,.086.147Zm-4.4-8.389h-.008l-1.763,5.1h3.558Z" transform="translate(100.518 23.204)" fill="#183f8e"/>
    <path id="Caminho_33" data-name="Caminho 33" d="M91.429,45.714A45.714,45.714,0,1,0,45.714,91.429,45.714,45.714,0,0,0,91.429,45.714" transform="translate(0 0)" fill="#f1f2f3"/>
    <path id="Caminho_34" data-name="Caminho 34" d="M13.764,30.639C26.178,14.473,47.121,2.386,66.044,10.412c0,0-10.123-9.212-27.451-9.193A40.2,40.2,0,0,0,24.76,4.026c-11,5.119-16.4,15.06-12.187,26.44a.687.687,0,0,0,1.191.174" transform="translate(6.666 0.729)" fill="#f39200"/>
    <path id="Caminho_35" data-name="Caminho 35" d="M68.867,21.565c-.078-.249-.2-.636-.422-1.256a2.476,2.476,0,0,0-1.6-1.522,15.231,15.231,0,0,0-2.886-.628c-6.129-.542-17.828.748-31.242,16.05-.1.113-.8,1-1.442,1.8a.635.635,0,0,0,.642,1.015c7.748-1.843,28.607-8.952,38.943-2.38a38.981,38.981,0,0,0-1.99-13.083" transform="translate(18.624 10.805)" fill="#f39200"/>
    <path id="Caminho_36" data-name="Caminho 36" d="M42.934,67.063C39.147,58.054,35.25,56.233,29.7,52.8-1.963,33.244,12.029,14.364,18.069,7.42a.209.209,0,0,0-.291-.3C9.948,13.337,5.227,20.57,2.438,30.583.867,36.223,1.1,38.348,1.561,42.656A19.262,19.262,0,0,0,3.2,48.346c7.684,17.349,35.4,19.743,39.51,18.781a2.083,2.083,0,0,0,.225-.064h0" transform="translate(0.729 4.232)" fill="#f39200"/>
    <path id="Caminho_37" data-name="Caminho 37" d="M42.082,57.7c.032-.337-.238-.352-.572-.4-4.318-.67-27.1-.09-39.456-22.137,0,0-.347-.524.045.7C5.481,46.46,8.386,51.09,16.242,58.1c5.75,5.137,15.166,8.841,19.148,9.442,2.238.337,6.284-5.474,6.692-9.847" transform="translate(1.144 20.967)" fill="#e4441b"/>
    <path id="Caminho_38" data-name="Caminho 38" d="M40.826,8.907c-9.484,4.218-16.69,7.892-26.585,20.558a2.745,2.745,0,0,0,.08,3.465,33.588,33.588,0,0,0,6.933,5.96c9.693,6.537,17.219,5.6,17.219,5.6S53.046,17.418,77.662,24.306C70.587,8.191,55.607,2.337,40.826,8.907M33.682,41.591c-2.939,0-5.322-2.787-5.322-6.224s2.383-6.225,5.322-6.225S39,31.93,39,35.367s-2.383,6.224-5.322,6.224" transform="translate(8.174 3.744)" fill="#183f8e"/>
    <path id="Caminho_39" data-name="Caminho 39" d="M53.968,17.58c0,.013,0,.01,0,0" transform="translate(32.286 10.517)" fill="#183f8e"/>
    <path id="Caminho_40" data-name="Caminho 40" d="M53.949,17.521s.022.069.032.093c0-.013-.014-.04-.032-.093" transform="translate(32.274 10.481)" fill="#183f8e"/>
    <path id="Caminho_41" data-name="Caminho 41" d="M40.208,58.3A46.154,46.154,0,0,0,56.425,45.415a100.813,100.813,0,0,1-16.118,4.63.551.551,0,0,0-.455.607,41.365,41.365,0,0,1,.356,7.646" transform="translate(23.838 27.168)" fill="#e4441b"/>
    <path id="Caminho_42" data-name="Caminho 42" d="M57.672,30.642c-9.554,1.483-15.329,3.881-21.025,8.191-1.248.945-1.52,1.966-.869,3.043a54.638,54.638,0,0,1,4.748,9.676.571.571,0,0,0,.676.353c7.95-2.041,10.544-2.858,15.118-5.218,2.138-6.987,2.554-14.1,1.352-16.045" transform="translate(21.199 18.331)" fill="#183f8e"/>
    <path id="Caminho_43" data-name="Caminho 43" d="M52.258,44.968a17.67,17.67,0,0,0,5.5-5.842,13.293,13.293,0,0,0,1.627-3.857,39.129,39.129,0,0,0,.671-4.707c.05-1.229-6.147-.05-7.8.229a.418.418,0,0,0-.342.462c.612,5.937-.689,10.242-2.636,15.512Z" transform="translate(29.481 17.955)" fill="#f39200"/>
  </g>
</svg>
