<svg xmlns="http://www.w3.org/2000/svg" width="54.099" height="54.099" viewBox="0 0 54.099 54.099">
  <g id="social-facebook" transform="translate(715.996 -8680.541)">
    <g id="facebook-icon" transform="translate(-715.996 8680.541)">
      <g id="Grupo_78" data-name="Grupo 78">
        <g id="Grupo_77" data-name="Grupo 77">
          <path id="Caminho_2182" data-name="Caminho 2182" d="M37.792,0H16.307A16.261,16.261,0,0,0,0,16.307V37.792A16.261,16.261,0,0,0,16.307,54.1H37.792A16.261,16.261,0,0,0,54.1,37.792V16.307A16.261,16.261,0,0,0,37.792,0ZM50.235,38.41A11.874,11.874,0,0,1,38.41,50.235H15.689A11.874,11.874,0,0,1,3.864,38.41V15.689A11.874,11.874,0,0,1,15.689,3.864H38.41A11.874,11.874,0,0,1,50.235,15.689Z" fill="#464646"/>
        </g>
      </g>
      <g id="Grupo_80" data-name="Grupo 80" transform="translate(20.789 13.834)">
        <g id="Grupo_79" data-name="Grupo 79">
          <path id="Caminho_2183" data-name="Caminho 2183" d="M29.682,31.193V44.022a.332.332,0,0,0,.309.309h4.792a.332.332,0,0,0,.309-.309V31.038H38.57a.332.332,0,0,0,.309-.309l.309-3.941a.354.354,0,0,0-.309-.386H35.092V23.619a1.189,1.189,0,0,1,1.159-1.159h2.628a.332.332,0,0,0,.309-.309V18.209a.332.332,0,0,0-.309-.309H34.4A4.816,4.816,0,0,0,29.6,22.692v3.787h-2.4a.332.332,0,0,0-.309.309v3.941a.332.332,0,0,0,.309.309h2.4l.077.155Z" transform="translate(-26.9 -17.9)" fill="#464646"/>
        </g>
      </g>
    </g>
  </g>
</svg>
