<svg xmlns="http://www.w3.org/2000/svg" width="54.099" height="54.099" viewBox="0 0 54.099 54.099">
  <g id="social-tiktok-w" transform="translate(778.946 -8680.541)">
    <g id="Grupo_128" data-name="Grupo 128" transform="translate(-778.946 8680.541)">
      <g id="linkedin-icon">
        <g id="Grupo_76" data-name="Grupo 76">
          <g id="Grupo_75" data-name="Grupo 75">
            <path id="Caminho_2181" data-name="Caminho 2181" d="M37.792,0H16.307A16.261,16.261,0,0,0,0,16.307V37.792A16.261,16.261,0,0,0,16.307,54.1H37.792A16.261,16.261,0,0,0,54.1,37.792V16.307A16.261,16.261,0,0,0,37.792,0ZM50.235,38.41A11.874,11.874,0,0,1,38.41,50.235H15.689A11.874,11.874,0,0,1,3.864,38.41V15.689A11.874,11.874,0,0,1,15.689,3.864H38.41A11.874,11.874,0,0,1,50.235,15.689Z" fill="#fff"/>
          </g>
        </g>
        <path id="tiktok-svgrepo-com" d="M26.217,8.577a6.727,6.727,0,0,1-5.291-5.958V2H16.091V21.188a4.064,4.064,0,0,1-7.3,2.446h0a4.063,4.063,0,0,1,4.467-6.33V12.393a8.881,8.881,0,1,0,7.667,8.8v-9.8a11.483,11.483,0,0,0,6.7,2.142v-4.8A6.78,6.78,0,0,1,26.217,8.577Z" transform="translate(11.657 11.013)" fill="#fff"/>
      </g>
    </g>
  </g>
</svg>
