<svg xmlns="http://www.w3.org/2000/svg" width="54.099" height="54.099" viewBox="0 0 54.099 54.099">
  <g id="social-instagram-w" transform="translate(906 -8680.541)">
    <g id="instagram-icon" transform="translate(-906 8680.541)">
      <circle id="Elipse_12" data-name="Elipse 12" cx="3.169" cy="3.169" r="3.169" transform="translate(38.101 9.97)" fill="#fff"/>
      <g id="Grupo_82" data-name="Grupo 82">
        <g id="Grupo_81" data-name="Grupo 81">
          <path id="Caminho_2184" data-name="Caminho 2184" d="M37.792,0H16.307A16.261,16.261,0,0,0,0,16.307V37.792A16.261,16.261,0,0,0,16.307,54.1H37.792A16.261,16.261,0,0,0,54.1,37.792V16.307A16.261,16.261,0,0,0,37.792,0ZM50.235,38.41A11.874,11.874,0,0,1,38.41,50.235H15.689A11.874,11.874,0,0,1,3.864,38.41V15.689A11.874,11.874,0,0,1,15.689,3.864H38.41A11.874,11.874,0,0,1,50.235,15.689Z" fill="#fff"/>
        </g>
      </g>
      <path id="Caminho_2185" data-name="Caminho 2185" d="M31.17,18.2A13.37,13.37,0,1,0,44.54,31.57,13.424,13.424,0,0,0,31.17,18.2Zm0,21.871a8.579,8.579,0,1,1,8.579-8.579A8.609,8.609,0,0,1,31.17,40.071Z" transform="translate(-4.043 -4.134)" fill="#fff"/>
    </g>
  </g>
</svg>
