<svg xmlns="http://www.w3.org/2000/svg" width="54.099" height="54.099" viewBox="0 0 54.099 54.099">
  <g id="social-youtube-w" transform="translate(842.473 -8680.541)">
    <g id="youtube-icon" transform="translate(-842.473 8680.541)">
      <path id="Caminho_2177" data-name="Caminho 2177" d="M42.966,32.891,26.814,41.779c-.7.386-1.314-.155-1.314-.927V22.69a.93.93,0,0,1,1.391-.927L43.2,31.114A1.033,1.033,0,0,1,42.966,32.891Z" transform="translate(-5.793 -4.914)" fill="#fff"/>
      <g id="Grupo_69" data-name="Grupo 69">
        <g id="Grupo_68" data-name="Grupo 68">
          <path id="Caminho_2178" data-name="Caminho 2178" d="M37.792,0H16.307A16.261,16.261,0,0,0,0,16.307V37.792A16.261,16.261,0,0,0,16.307,54.1H37.792A16.261,16.261,0,0,0,54.1,37.792V16.307A16.261,16.261,0,0,0,37.792,0ZM50.235,38.41A11.874,11.874,0,0,1,38.41,50.235H15.689A11.874,11.874,0,0,1,3.864,38.41V15.689A11.874,11.874,0,0,1,15.689,3.864H38.41A11.874,11.874,0,0,1,50.235,15.689Z" fill="#fff"/>
        </g>
      </g>
    </g>
  </g>
</svg>
